# MagicaVoxel @ Ephtracy

# group
o 

# material
mtllib ShortTriangleSlopeB.mtl
usemtl palette

# normals
vn -1 0 0
vn 1 0 0
vn 0 0 1
vn 0 0 -1
vn 0 -1 0
vn 0 1 0

# texcoords
vt 0.958984 0.5
vt 0.978516 0.5

# verts
v -0.3 0 0.3
v -0.3 0 -0.2
v -0.3 0 -0.3
v -0.3 0.1 0.3
v -0.3 0.1 0.1
v -0.3 0.2 0.1
v -0.3 0.2 -0.1
v -0.3 0.3 -0.1
v -0.3 0.3 -0.2
v -0.3 0.3 -0.3
v -0.2 0 -0.2
v -0.2 0 -0.3
v -0.2 0.3 -0.2
v -0.2 0.3 -0.3
v -0.1 0 -0.1
v -0.1 0 -0.2
v -0.1 0.2 -0.1
v -0.1 0.3 -0.1
v -0.1 0.3 -0.2
v 0 0 0
v 0 0 -0.1
v 0 0.2 0
v 0 0.2 -0.1
v 0.1 0 0.1
v 0.1 0 0
v 0.1 0.1 0.1
v 0.1 0.2 0.1
v 0.1 0.2 0
v 0.2 0 0.2
v 0.2 0 0.1
v 0.2 0.1 0.2
v 0.2 0.1 0.1
v 0.3 0 0.3
v 0.3 0 0.2
v 0.3 0.1 0.3
v 0.3 0.1 0.2
v -0.3 0 0.3
v -0.3 0.1 0.3
v 0.2 0 0.3
v 0.2 0.1 0.3
v 0.3 0 0.3
v 0.3 0.1 0.3
v -0.3 0.1 0.1
v -0.3 0.2 0.1
v 0 0.1 0.1
v 0 0.2 0.1
v 0.1 0.1 0.1
v 0.1 0.2 0.1
v -0.3 0.2 -0.1
v -0.3 0.3 -0.1
v -0.2 0.2 -0.1
v -0.2 0.3 -0.1
v -0.1 0.2 -0.1
v -0.1 0.3 -0.1
v 0.2 0 0.2
v 0.2 0.1 0.2
v 0.3 0 0.2
v 0.3 0.1 0.2
v 0.1 0 0.1
v 0.1 0.1 0.1
v 0.2 0 0.1
v 0.2 0.1 0.1
v 0 0 0
v 0 0.2 0
v 0.1 0 0
v 0.1 0.2 0
v -0.1 0 -0.1
v -0.1 0.2 -0.1
v 0 0 -0.1
v 0 0.2 -0.1
v -0.2 0 -0.2
v -0.2 0.3 -0.2
v -0.1 0 -0.2
v -0.1 0.3 -0.2
v -0.3 0 -0.3
v -0.3 0.3 -0.3
v -0.2 0 -0.3
v -0.2 0.3 -0.3
v -0.3 0 0.3
v 0.2 0 0.3
v 0.3 0 0.3
v 0.1 0 0.2
v 0.2 0 0.2
v 0.3 0 0.2
v 0 0 0.1
v 0.1 0 0.1
v 0.2 0 0.1
v -0.1 0 0
v 0 0 0
v 0.1 0 0
v -0.2 0 -0.1
v -0.1 0 -0.1
v 0 0 -0.1
v -0.3 0 -0.2
v -0.2 0 -0.2
v -0.1 0 -0.2
v -0.3 0 -0.3
v -0.2 0 -0.3
v -0.3 0.1 0.3
v 0.2 0.1 0.3
v 0.3 0.1 0.3
v 0.1 0.1 0.2
v 0.2 0.1 0.2
v 0.3 0.1 0.2
v -0.3 0.1 0.1
v 0 0.1 0.1
v 0.1 0.1 0.1
v 0.2 0.1 0.1
v -0.3 0.2 0.1
v 0 0.2 0.1
v 0.1 0.2 0.1
v -0.1 0.2 0
v 0 0.2 0
v 0.1 0.2 0
v -0.3 0.2 -0.1
v -0.2 0.2 -0.1
v -0.1 0.2 -0.1
v 0 0.2 -0.1
v -0.3 0.3 -0.1
v -0.2 0.3 -0.1
v -0.1 0.3 -0.1
v -0.3 0.3 -0.2
v -0.2 0.3 -0.2
v -0.1 0.3 -0.2
v -0.3 0.3 -0.3
v -0.2 0.3 -0.3

# faces
f 4/2/1 2/2/1 1/2/1
f 5/2/1 2/2/1 4/2/1
f 6/2/1 2/2/1 5/2/1
f 7/2/1 2/2/1 6/2/1
f 8/2/1 2/2/1 7/2/1
f 9/1/1 3/1/1 2/1/1
f 9/2/1 2/2/1 8/2/1
f 10/1/1 3/1/1 9/1/1
f 11/1/2 12/1/2 13/1/2
f 13/1/2 12/1/2 14/1/2
f 15/1/2 16/1/2 17/1/2
f 17/1/2 16/1/2 18/1/2
f 18/1/2 16/1/2 19/1/2
f 20/1/2 21/1/2 22/1/2
f 22/1/2 21/1/2 23/1/2
f 24/1/2 25/1/2 26/1/2
f 26/1/2 25/1/2 27/1/2
f 27/1/2 25/1/2 28/1/2
f 29/1/2 30/1/2 31/1/2
f 31/1/2 30/1/2 32/1/2
f 33/1/2 34/1/2 35/1/2
f 35/1/2 34/1/2 36/1/2
f 39/2/3 38/2/3 37/2/3
f 40/2/3 38/2/3 39/2/3
f 41/1/3 40/1/3 39/1/3
f 42/1/3 40/1/3 41/1/3
f 45/2/3 44/2/3 43/2/3
f 46/2/3 44/2/3 45/2/3
f 47/1/3 46/1/3 45/1/3
f 48/1/3 46/1/3 47/1/3
f 51/2/3 50/2/3 49/2/3
f 52/2/3 50/2/3 51/2/3
f 53/1/3 52/1/3 51/1/3
f 54/1/3 52/1/3 53/1/3
f 55/1/4 56/1/4 57/1/4
f 57/1/4 56/1/4 58/1/4
f 59/1/4 60/1/4 61/1/4
f 61/1/4 60/1/4 62/1/4
f 63/1/4 64/1/4 65/1/4
f 65/1/4 64/1/4 66/1/4
f 67/1/4 68/1/4 69/1/4
f 69/1/4 68/1/4 70/1/4
f 71/1/4 72/1/4 73/1/4
f 73/1/4 72/1/4 74/1/4
f 75/1/4 76/1/4 77/1/4
f 77/1/4 76/1/4 78/1/4
f 82/2/5 80/2/5 79/2/5
f 83/1/5 81/1/5 80/1/5
f 83/2/5 80/2/5 82/2/5
f 84/1/5 81/1/5 83/1/5
f 85/2/5 82/2/5 79/2/5
f 86/1/5 83/1/5 82/1/5
f 86/2/5 82/2/5 85/2/5
f 87/1/5 83/1/5 86/1/5
f 88/2/5 85/2/5 79/2/5
f 89/1/5 86/1/5 85/1/5
f 89/2/5 85/2/5 88/2/5
f 90/1/5 86/1/5 89/1/5
f 91/2/5 88/2/5 79/2/5
f 92/1/5 89/1/5 88/1/5
f 92/2/5 88/2/5 91/2/5
f 93/1/5 89/1/5 92/1/5
f 94/2/5 91/2/5 79/2/5
f 95/1/5 92/1/5 91/1/5
f 95/2/5 91/2/5 94/2/5
f 96/1/5 92/1/5 95/1/5
f 97/1/5 95/1/5 94/1/5
f 98/1/5 95/1/5 97/1/5
f 99/2/6 100/2/6 102/2/6
f 100/1/6 101/1/6 103/1/6
f 102/2/6 100/2/6 103/2/6
f 103/1/6 101/1/6 104/1/6
f 99/2/6 102/2/6 105/2/6
f 105/2/6 102/2/6 106/2/6
f 102/1/6 103/1/6 107/1/6
f 106/2/6 102/2/6 107/2/6
f 107/1/6 103/1/6 108/1/6
f 109/2/6 110/2/6 112/2/6
f 110/1/6 111/1/6 113/1/6
f 112/2/6 110/2/6 113/2/6
f 113/1/6 111/1/6 114/1/6
f 109/2/6 112/2/6 115/2/6
f 115/2/6 112/2/6 116/2/6
f 112/1/6 113/1/6 117/1/6
f 116/2/6 112/2/6 117/2/6
f 117/1/6 113/1/6 118/1/6
f 119/2/6 120/2/6 122/2/6
f 120/1/6 121/1/6 123/1/6
f 122/2/6 120/2/6 123/2/6
f 123/1/6 121/1/6 124/1/6
f 122/1/6 123/1/6 125/1/6
f 125/1/6 123/1/6 126/1/6
