# MagicaVoxel @ Ephtracy

# group
o 

# material
mtllib TriangleSlopeB.mtl
usemtl palette

# normals
vn -1 0 0
vn 1 0 0
vn 0 0 1
vn 0 0 -1
vn 0 -1 0
vn 0 1 0

# texcoords
vt 0.958984 0.5
vt 0.978516 0.5

# verts
v -0.3 0 0.3
v -0.3 0 -0.2
v -0.3 0 -0.3
v -0.3 0.1 0.3
v -0.3 0.1 0.2
v -0.3 0.2 0.2
v -0.3 0.2 0.1
v -0.3 0.3 0.1
v -0.3 0.3 0
v -0.3 0.4 0
v -0.3 0.4 -0.1
v -0.3 0.5 -0.1
v -0.3 0.5 -0.2
v -0.3 0.6 -0.2
v -0.3 0.6 -0.3
v -0.2 0 -0.2
v -0.2 0 -0.3
v -0.2 0.5 -0.2
v -0.2 0.6 -0.2
v -0.2 0.6 -0.3
v -0.1 0 -0.1
v -0.1 0 -0.2
v -0.1 0.4 -0.1
v -0.1 0.5 -0.1
v -0.1 0.5 -0.2
v 0 0 0
v 0 0 -0.1
v 0 0.3 0
v 0 0.4 0
v 0 0.4 -0.1
v 0.1 0 0.1
v 0.1 0 0
v 0.1 0.2 0.1
v 0.1 0.3 0.1
v 0.1 0.3 0
v 0.2 0 0.2
v 0.2 0 0.1
v 0.2 0.1 0.2
v 0.2 0.2 0.2
v 0.2 0.2 0.1
v 0.3 0 0.3
v 0.3 0 0.2
v 0.3 0.1 0.3
v 0.3 0.1 0.2
v -0.3 0 0.3
v -0.3 0.1 0.3
v 0.2 0 0.3
v 0.2 0.1 0.3
v 0.3 0 0.3
v 0.3 0.1 0.3
v -0.3 0.1 0.2
v -0.3 0.2 0.2
v 0.1 0.1 0.2
v 0.1 0.2 0.2
v 0.2 0.1 0.2
v 0.2 0.2 0.2
v -0.3 0.2 0.1
v -0.3 0.3 0.1
v 0 0.2 0.1
v 0 0.3 0.1
v 0.1 0.2 0.1
v 0.1 0.3 0.1
v -0.3 0.3 0
v -0.3 0.4 0
v -0.1 0.3 0
v -0.1 0.4 0
v 0 0.3 0
v 0 0.4 0
v -0.3 0.4 -0.1
v -0.3 0.5 -0.1
v -0.2 0.4 -0.1
v -0.2 0.5 -0.1
v -0.1 0.4 -0.1
v -0.1 0.5 -0.1
v -0.3 0.5 -0.2
v -0.3 0.6 -0.2
v -0.2 0.5 -0.2
v -0.2 0.6 -0.2
v 0.2 0 0.2
v 0.2 0.1 0.2
v 0.3 0 0.2
v 0.3 0.1 0.2
v 0.1 0 0.1
v 0.1 0.2 0.1
v 0.2 0 0.1
v 0.2 0.2 0.1
v 0 0 0
v 0 0.3 0
v 0.1 0 0
v 0.1 0.3 0
v -0.1 0 -0.1
v -0.1 0.4 -0.1
v 0 0 -0.1
v 0 0.4 -0.1
v -0.2 0 -0.2
v -0.2 0.5 -0.2
v -0.1 0 -0.2
v -0.1 0.5 -0.2
v -0.3 0 -0.3
v -0.3 0.6 -0.3
v -0.2 0 -0.3
v -0.2 0.6 -0.3
v -0.3 0 0.3
v 0.2 0 0.3
v 0.3 0 0.3
v 0.1 0 0.2
v 0.2 0 0.2
v 0.3 0 0.2
v 0 0 0.1
v 0.1 0 0.1
v 0.2 0 0.1
v -0.1 0 0
v 0 0 0
v 0.1 0 0
v -0.2 0 -0.1
v -0.1 0 -0.1
v 0 0 -0.1
v -0.3 0 -0.2
v -0.2 0 -0.2
v -0.1 0 -0.2
v -0.3 0 -0.3
v -0.2 0 -0.3
v -0.3 0.1 0.3
v 0.2 0.1 0.3
v 0.3 0.1 0.3
v -0.3 0.1 0.2
v 0.1 0.1 0.2
v 0.2 0.1 0.2
v 0.3 0.1 0.2
v -0.3 0.2 0.2
v 0.1 0.2 0.2
v 0.2 0.2 0.2
v -0.3 0.2 0.1
v 0 0.2 0.1
v 0.1 0.2 0.1
v 0.2 0.2 0.1
v -0.3 0.3 0.1
v 0 0.3 0.1
v 0.1 0.3 0.1
v -0.3 0.3 0
v -0.1 0.3 0
v 0 0.3 0
v 0.1 0.3 0
v -0.3 0.4 0
v -0.1 0.4 0
v 0 0.4 0
v -0.3 0.4 -0.1
v -0.2 0.4 -0.1
v -0.1 0.4 -0.1
v 0 0.4 -0.1
v -0.3 0.5 -0.1
v -0.2 0.5 -0.1
v -0.1 0.5 -0.1
v -0.3 0.5 -0.2
v -0.2 0.5 -0.2
v -0.1 0.5 -0.2
v -0.3 0.6 -0.2
v -0.2 0.6 -0.2
v -0.3 0.6 -0.3
v -0.2 0.6 -0.3

# faces
f 4/2/1 2/2/1 1/2/1
f 5/2/1 2/2/1 4/2/1
f 6/2/1 2/2/1 5/2/1
f 7/2/1 2/2/1 6/2/1
f 8/2/1 2/2/1 7/2/1
f 9/2/1 2/2/1 8/2/1
f 10/2/1 2/2/1 9/2/1
f 11/2/1 2/2/1 10/2/1
f 12/2/1 2/2/1 11/2/1
f 13/1/1 3/1/1 2/1/1
f 13/2/1 2/2/1 12/2/1
f 14/1/1 3/1/1 13/1/1
f 15/1/1 3/1/1 14/1/1
f 16/1/2 17/1/2 18/1/2
f 18/1/2 17/1/2 19/1/2
f 19/1/2 17/1/2 20/1/2
f 21/1/2 22/1/2 23/1/2
f 23/1/2 22/1/2 24/1/2
f 24/1/2 22/1/2 25/1/2
f 26/1/2 27/1/2 28/1/2
f 28/1/2 27/1/2 29/1/2
f 29/1/2 27/1/2 30/1/2
f 31/1/2 32/1/2 33/1/2
f 33/1/2 32/1/2 34/1/2
f 34/1/2 32/1/2 35/1/2
f 36/1/2 37/1/2 38/1/2
f 38/1/2 37/1/2 39/1/2
f 39/1/2 37/1/2 40/1/2
f 41/1/2 42/1/2 43/1/2
f 43/1/2 42/1/2 44/1/2
f 47/2/3 46/2/3 45/2/3
f 48/2/3 46/2/3 47/2/3
f 49/1/3 48/1/3 47/1/3
f 50/1/3 48/1/3 49/1/3
f 53/2/3 52/2/3 51/2/3
f 54/2/3 52/2/3 53/2/3
f 55/1/3 54/1/3 53/1/3
f 56/1/3 54/1/3 55/1/3
f 59/2/3 58/2/3 57/2/3
f 60/2/3 58/2/3 59/2/3
f 61/1/3 60/1/3 59/1/3
f 62/1/3 60/1/3 61/1/3
f 65/2/3 64/2/3 63/2/3
f 66/2/3 64/2/3 65/2/3
f 67/1/3 66/1/3 65/1/3
f 68/1/3 66/1/3 67/1/3
f 71/2/3 70/2/3 69/2/3
f 72/2/3 70/2/3 71/2/3
f 73/1/3 72/1/3 71/1/3
f 74/1/3 72/1/3 73/1/3
f 77/1/3 76/1/3 75/1/3
f 78/1/3 76/1/3 77/1/3
f 79/1/4 80/1/4 81/1/4
f 81/1/4 80/1/4 82/1/4
f 83/1/4 84/1/4 85/1/4
f 85/1/4 84/1/4 86/1/4
f 87/1/4 88/1/4 89/1/4
f 89/1/4 88/1/4 90/1/4
f 91/1/4 92/1/4 93/1/4
f 93/1/4 92/1/4 94/1/4
f 95/1/4 96/1/4 97/1/4
f 97/1/4 96/1/4 98/1/4
f 99/1/4 100/1/4 101/1/4
f 101/1/4 100/1/4 102/1/4
f 106/2/5 104/2/5 103/2/5
f 107/1/5 105/1/5 104/1/5
f 107/2/5 104/2/5 106/2/5
f 108/1/5 105/1/5 107/1/5
f 109/2/5 106/2/5 103/2/5
f 110/1/5 107/1/5 106/1/5
f 110/2/5 106/2/5 109/2/5
f 111/1/5 107/1/5 110/1/5
f 112/2/5 109/2/5 103/2/5
f 113/1/5 110/1/5 109/1/5
f 113/2/5 109/2/5 112/2/5
f 114/1/5 110/1/5 113/1/5
f 115/2/5 112/2/5 103/2/5
f 116/1/5 113/1/5 112/1/5
f 116/2/5 112/2/5 115/2/5
f 117/1/5 113/1/5 116/1/5
f 118/2/5 115/2/5 103/2/5
f 119/1/5 116/1/5 115/1/5
f 119/2/5 115/2/5 118/2/5
f 120/1/5 116/1/5 119/1/5
f 121/1/5 119/1/5 118/1/5
f 122/1/5 119/1/5 121/1/5
f 123/2/6 124/2/6 126/2/6
f 126/2/6 124/2/6 127/2/6
f 124/1/6 125/1/6 128/1/6
f 127/2/6 124/2/6 128/2/6
f 128/1/6 125/1/6 129/1/6
f 130/2/6 131/2/6 133/2/6
f 133/2/6 131/2/6 134/2/6
f 131/1/6 132/1/6 135/1/6
f 134/2/6 131/2/6 135/2/6
f 135/1/6 132/1/6 136/1/6
f 137/2/6 138/2/6 140/2/6
f 140/2/6 138/2/6 141/2/6
f 138/1/6 139/1/6 142/1/6
f 141/2/6 138/2/6 142/2/6
f 142/1/6 139/1/6 143/1/6
f 144/2/6 145/2/6 147/2/6
f 147/2/6 145/2/6 148/2/6
f 145/1/6 146/1/6 149/1/6
f 148/2/6 145/2/6 149/2/6
f 149/1/6 146/1/6 150/1/6
f 151/2/6 152/2/6 154/2/6
f 152/1/6 153/1/6 155/1/6
f 154/2/6 152/2/6 155/2/6
f 155/1/6 153/1/6 156/1/6
f 157/1/6 158/1/6 159/1/6
f 159/1/6 158/1/6 160/1/6
