# MagicaVoxel @ Ephtracy

# group
o 

# material
mtllib TriangleSlopeA.mtl
usemtl palette

# normals
vn -1 0 0
vn 1 0 0
vn 0 0 1
vn 0 0 -1
vn 0 -1 0
vn 0 1 0

# texcoords
vt 0.958984 0.5
vt 0.978516 0.5

# verts
v -0.3 0 0.3
v -0.3 0 0.2
v -0.3 0.1 0.3
v -0.3 0.1 0.2
v -0.2 0 0.2
v -0.2 0 0.1
v -0.2 0.1 0.2
v -0.2 0.2 0.2
v -0.2 0.2 0.1
v -0.1 0 0.1
v -0.1 0 0
v -0.1 0.2 0.1
v -0.1 0.3 0.1
v -0.1 0.3 0
v 0 0 0
v 0 0 -0.1
v 0 0.3 0
v 0 0.4 0
v 0 0.4 -0.1
v 0.1 0 -0.1
v 0.1 0 -0.2
v 0.1 0.4 -0.1
v 0.1 0.5 -0.1
v 0.1 0.5 -0.2
v 0.2 0 -0.2
v 0.2 0 -0.3
v 0.2 0.5 -0.2
v 0.2 0.6 -0.2
v 0.2 0.6 -0.3
v 0.3 0 0.3
v 0.3 0 -0.2
v 0.3 0 -0.3
v 0.3 0.1 0.3
v 0.3 0.1 0.2
v 0.3 0.2 0.2
v 0.3 0.2 0.1
v 0.3 0.3 0.1
v 0.3 0.3 0
v 0.3 0.4 0
v 0.3 0.4 -0.1
v 0.3 0.5 -0.1
v 0.3 0.5 -0.2
v 0.3 0.6 -0.2
v 0.3 0.6 -0.3
v -0.3 0 0.3
v -0.3 0.1 0.3
v -0.2 0 0.3
v -0.2 0.1 0.3
v 0.3 0 0.3
v 0.3 0.1 0.3
v -0.2 0.1 0.2
v -0.2 0.2 0.2
v -0.1 0.1 0.2
v -0.1 0.2 0.2
v 0.3 0.1 0.2
v 0.3 0.2 0.2
v -0.1 0.2 0.1
v -0.1 0.3 0.1
v 0 0.2 0.1
v 0 0.3 0.1
v 0.3 0.2 0.1
v 0.3 0.3 0.1
v 0 0.3 0
v 0 0.4 0
v 0.1 0.3 0
v 0.1 0.4 0
v 0.3 0.3 0
v 0.3 0.4 0
v 0.1 0.4 -0.1
v 0.1 0.5 -0.1
v 0.2 0.4 -0.1
v 0.2 0.5 -0.1
v 0.3 0.4 -0.1
v 0.3 0.5 -0.1
v 0.2 0.5 -0.2
v 0.2 0.6 -0.2
v 0.3 0.5 -0.2
v 0.3 0.6 -0.2
v -0.3 0 0.2
v -0.3 0.1 0.2
v -0.2 0 0.2
v -0.2 0.1 0.2
v -0.2 0 0.1
v -0.2 0.2 0.1
v -0.1 0 0.1
v -0.1 0.2 0.1
v -0.1 0 0
v -0.1 0.3 0
v 0 0 0
v 0 0.3 0
v 0 0 -0.1
v 0 0.4 -0.1
v 0.1 0 -0.1
v 0.1 0.4 -0.1
v 0.1 0 -0.2
v 0.1 0.5 -0.2
v 0.2 0 -0.2
v 0.2 0.5 -0.2
v 0.2 0 -0.3
v 0.2 0.6 -0.3
v 0.3 0 -0.3
v 0.3 0.6 -0.3
v -0.3 0 0.3
v -0.2 0 0.3
v 0.3 0 0.3
v -0.3 0 0.2
v -0.2 0 0.2
v -0.1 0 0.2
v -0.2 0 0.1
v -0.1 0 0.1
v 0 0 0.1
v -0.1 0 0
v 0 0 0
v 0.1 0 0
v 0 0 -0.1
v 0.1 0 -0.1
v 0.2 0 -0.1
v 0.1 0 -0.2
v 0.2 0 -0.2
v 0.3 0 -0.2
v 0.2 0 -0.3
v 0.3 0 -0.3
v -0.3 0.1 0.3
v -0.2 0.1 0.3
v 0.3 0.1 0.3
v -0.3 0.1 0.2
v -0.2 0.1 0.2
v -0.1 0.1 0.2
v 0.3 0.1 0.2
v -0.2 0.2 0.2
v -0.1 0.2 0.2
v 0.3 0.2 0.2
v -0.2 0.2 0.1
v -0.1 0.2 0.1
v 0 0.2 0.1
v 0.3 0.2 0.1
v -0.1 0.3 0.1
v 0 0.3 0.1
v 0.3 0.3 0.1
v -0.1 0.3 0
v 0 0.3 0
v 0.1 0.3 0
v 0.3 0.3 0
v 0 0.4 0
v 0.1 0.4 0
v 0.3 0.4 0
v 0 0.4 -0.1
v 0.1 0.4 -0.1
v 0.2 0.4 -0.1
v 0.3 0.4 -0.1
v 0.1 0.5 -0.1
v 0.2 0.5 -0.1
v 0.3 0.5 -0.1
v 0.1 0.5 -0.2
v 0.2 0.5 -0.2
v 0.3 0.5 -0.2
v 0.2 0.6 -0.2
v 0.3 0.6 -0.2
v 0.2 0.6 -0.3
v 0.3 0.6 -0.3

# faces
f 3/1/1 2/1/1 1/1/1
f 4/1/1 2/1/1 3/1/1
f 7/1/1 6/1/1 5/1/1
f 8/1/1 6/1/1 7/1/1
f 9/1/1 6/1/1 8/1/1
f 12/1/1 11/1/1 10/1/1
f 13/1/1 11/1/1 12/1/1
f 14/1/1 11/1/1 13/1/1
f 17/1/1 16/1/1 15/1/1
f 18/1/1 16/1/1 17/1/1
f 19/1/1 16/1/1 18/1/1
f 22/1/1 21/1/1 20/1/1
f 23/1/1 21/1/1 22/1/1
f 24/1/1 21/1/1 23/1/1
f 27/1/1 26/1/1 25/1/1
f 28/1/1 26/1/1 27/1/1
f 29/1/1 26/1/1 28/1/1
f 30/2/2 31/2/2 33/2/2
f 33/2/2 31/2/2 34/2/2
f 34/2/2 31/2/2 35/2/2
f 35/2/2 31/2/2 36/2/2
f 36/2/2 31/2/2 37/2/2
f 37/2/2 31/2/2 38/2/2
f 38/2/2 31/2/2 39/2/2
f 39/2/2 31/2/2 40/2/2
f 40/2/2 31/2/2 41/2/2
f 31/1/2 32/1/2 42/1/2
f 41/2/2 31/2/2 42/2/2
f 42/1/2 32/1/2 43/1/2
f 43/1/2 32/1/2 44/1/2
f 47/1/3 46/1/3 45/1/3
f 48/1/3 46/1/3 47/1/3
f 49/2/3 48/2/3 47/2/3
f 50/2/3 48/2/3 49/2/3
f 53/1/3 52/1/3 51/1/3
f 54/1/3 52/1/3 53/1/3
f 55/2/3 54/2/3 53/2/3
f 56/2/3 54/2/3 55/2/3
f 59/1/3 58/1/3 57/1/3
f 60/1/3 58/1/3 59/1/3
f 61/2/3 60/2/3 59/2/3
f 62/2/3 60/2/3 61/2/3
f 65/1/3 64/1/3 63/1/3
f 66/1/3 64/1/3 65/1/3
f 67/2/3 66/2/3 65/2/3
f 68/2/3 66/2/3 67/2/3
f 71/1/3 70/1/3 69/1/3
f 72/1/3 70/1/3 71/1/3
f 73/2/3 72/2/3 71/2/3
f 74/2/3 72/2/3 73/2/3
f 77/1/3 76/1/3 75/1/3
f 78/1/3 76/1/3 77/1/3
f 79/1/4 80/1/4 81/1/4
f 81/1/4 80/1/4 82/1/4
f 83/1/4 84/1/4 85/1/4
f 85/1/4 84/1/4 86/1/4
f 87/1/4 88/1/4 89/1/4
f 89/1/4 88/1/4 90/1/4
f 91/1/4 92/1/4 93/1/4
f 93/1/4 92/1/4 94/1/4
f 95/1/4 96/1/4 97/1/4
f 97/1/4 96/1/4 98/1/4
f 99/1/4 100/1/4 101/1/4
f 101/1/4 100/1/4 102/1/4
f 106/1/5 104/1/5 103/1/5
f 107/2/5 105/2/5 104/2/5
f 107/1/5 104/1/5 106/1/5
f 108/2/5 105/2/5 107/2/5
f 109/1/5 108/1/5 107/1/5
f 110/2/5 105/2/5 108/2/5
f 110/1/5 108/1/5 109/1/5
f 111/2/5 105/2/5 110/2/5
f 112/1/5 111/1/5 110/1/5
f 113/2/5 105/2/5 111/2/5
f 113/1/5 111/1/5 112/1/5
f 114/2/5 105/2/5 113/2/5
f 115/1/5 114/1/5 113/1/5
f 116/2/5 105/2/5 114/2/5
f 116/1/5 114/1/5 115/1/5
f 117/2/5 105/2/5 116/2/5
f 118/1/5 117/1/5 116/1/5
f 119/2/5 105/2/5 117/2/5
f 119/1/5 117/1/5 118/1/5
f 120/2/5 105/2/5 119/2/5
f 121/1/5 120/1/5 119/1/5
f 122/1/5 120/1/5 121/1/5
f 123/1/6 124/1/6 126/1/6
f 124/2/6 125/2/6 127/2/6
f 126/1/6 124/1/6 127/1/6
f 127/2/6 125/2/6 128/2/6
f 128/2/6 125/2/6 129/2/6
f 130/1/6 131/1/6 133/1/6
f 131/2/6 132/2/6 134/2/6
f 133/1/6 131/1/6 134/1/6
f 134/2/6 132/2/6 135/2/6
f 135/2/6 132/2/6 136/2/6
f 137/1/6 138/1/6 140/1/6
f 138/2/6 139/2/6 141/2/6
f 140/1/6 138/1/6 141/1/6
f 141/2/6 139/2/6 142/2/6
f 142/2/6 139/2/6 143/2/6
f 144/1/6 145/1/6 147/1/6
f 145/2/6 146/2/6 148/2/6
f 147/1/6 145/1/6 148/1/6
f 148/2/6 146/2/6 149/2/6
f 149/2/6 146/2/6 150/2/6
f 151/1/6 152/1/6 154/1/6
f 152/2/6 153/2/6 155/2/6
f 154/1/6 152/1/6 155/1/6
f 155/2/6 153/2/6 156/2/6
f 157/1/6 158/1/6 159/1/6
f 159/1/6 158/1/6 160/1/6
