# MagicaVoxel @ Ephtracy

# group
o 

# material
mtllib SideBlockB.mtl
usemtl palette

# normals
vn -1 0 0
vn 1 0 0
vn 0 0 1
vn 0 0 -1
vn 0 -1 0
vn 0 1 0

# texcoords
vt 0.958984 0.5
vt 0.966797 0.5
vt 0.978516 0.5

# verts
v -0.3 0 -0.2
v -0.3 0 -0.3
v -0.3 0.3 -0.2
v -0.3 0.3 -0.3
v -0.2 0 -0.1
v -0.2 0 -0.2
v -0.2 0.3 -0.1
v -0.2 0.3 -0.2
v -0.1 0 0
v -0.1 0 -0.1
v -0.1 0.3 0
v -0.1 0.3 -0.1
v 0 0 0.1
v 0 0 0
v 0 0.3 0.1
v 0 0.3 0
v 0.1 0 0.2
v 0.1 0 0.1
v 0.1 0.3 0.2
v 0.1 0.3 0.1
v 0.2 0 0.3
v 0.2 0 0.2
v 0.2 0.3 0.3
v 0.2 0.3 0.2
v 0.3 0 0.3
v 0.3 0 0.2
v 0.3 0 -0.2
v 0.3 0 -0.3
v 0.3 0.3 0.3
v 0.3 0.3 0.2
v 0.3 0.3 -0.2
v 0.3 0.3 -0.3
v 0.2 0 0.3
v 0.2 0.3 0.3
v 0.3 0 0.3
v 0.3 0.3 0.3
v 0.1 0 0.2
v 0.1 0.3 0.2
v 0.2 0 0.2
v 0.2 0.3 0.2
v 0 0 0.1
v 0 0.3 0.1
v 0.1 0 0.1
v 0.1 0.3 0.1
v -0.1 0 0
v -0.1 0.3 0
v 0 0 0
v 0 0.3 0
v -0.2 0 -0.1
v -0.2 0.3 -0.1
v -0.1 0 -0.1
v -0.1 0.3 -0.1
v -0.3 0 -0.2
v -0.3 0.3 -0.2
v -0.2 0 -0.2
v -0.2 0.3 -0.2
v -0.3 0 -0.3
v -0.3 0.3 -0.3
v -0.2 0 -0.3
v -0.2 0.3 -0.3
v -0.1 0 -0.3
v -0.1 0.3 -0.3
v 0 0 -0.3
v 0 0.3 -0.3
v 0.1 0 -0.3
v 0.1 0.3 -0.3
v 0.2 0 -0.3
v 0.2 0.3 -0.3
v 0.3 0 -0.3
v 0.3 0.3 -0.3
v 0.2 0 0.3
v 0.3 0 0.3
v 0.1 0 0.2
v 0.2 0 0.2
v 0.3 0 0.2
v 0 0 0.1
v 0.1 0 0.1
v 0.2 0 0.1
v -0.1 0 0
v 0 0 0
v 0.1 0 0
v -0.2 0 -0.1
v -0.1 0 -0.1
v 0 0 -0.1
v -0.3 0 -0.2
v -0.2 0 -0.2
v -0.1 0 -0.2
v 0 0 -0.2
v 0.1 0 -0.2
v 0.2 0 -0.2
v 0.3 0 -0.2
v -0.3 0 -0.3
v -0.2 0 -0.3
v -0.1 0 -0.3
v 0 0 -0.3
v 0.1 0 -0.3
v 0.2 0 -0.3
v 0.3 0 -0.3
v 0.2 0.3 0.3
v 0.3 0.3 0.3
v 0.1 0.3 0.2
v 0.2 0.3 0.2
v 0.3 0.3 0.2
v 0 0.3 0.1
v 0.1 0.3 0.1
v 0.2 0.3 0.1
v -0.1 0.3 0
v 0 0.3 0
v 0.1 0.3 0
v -0.2 0.3 -0.1
v -0.1 0.3 -0.1
v 0 0.3 -0.1
v -0.3 0.3 -0.2
v -0.2 0.3 -0.2
v -0.1 0.3 -0.2
v 0 0.3 -0.2
v 0.1 0.3 -0.2
v 0.2 0.3 -0.2
v 0.3 0.3 -0.2
v -0.3 0.3 -0.3
v -0.2 0.3 -0.3
v -0.1 0.3 -0.3
v 0 0.3 -0.3
v 0.1 0.3 -0.3
v 0.2 0.3 -0.3
v 0.3 0.3 -0.3

# faces
f 3/2/1 2/2/1 1/2/1
f 4/2/1 2/2/1 3/2/1
f 7/2/1 6/2/1 5/2/1
f 8/2/1 6/2/1 7/2/1
f 11/1/1 10/1/1 9/1/1
f 12/1/1 10/1/1 11/1/1
f 15/1/1 14/1/1 13/1/1
f 16/1/1 14/1/1 15/1/1
f 19/2/1 18/2/1 17/2/1
f 20/2/1 18/2/1 19/2/1
f 23/2/1 22/2/1 21/2/1
f 24/2/1 22/2/1 23/2/1
f 25/2/2 26/2/2 29/2/2
f 26/3/2 27/3/2 30/3/2
f 29/2/2 26/2/2 30/2/2
f 27/1/2 28/1/2 31/1/2
f 30/3/2 27/3/2 31/3/2
f 31/1/2 28/1/2 32/1/2
f 35/2/3 34/2/3 33/2/3
f 36/2/3 34/2/3 35/2/3
f 39/2/3 38/2/3 37/2/3
f 40/2/3 38/2/3 39/2/3
f 43/1/3 42/1/3 41/1/3
f 44/1/3 42/1/3 43/1/3
f 47/1/3 46/1/3 45/1/3
f 48/1/3 46/1/3 47/1/3
f 51/2/3 50/2/3 49/2/3
f 52/2/3 50/2/3 51/2/3
f 55/2/3 54/2/3 53/2/3
f 56/2/3 54/2/3 55/2/3
f 57/2/4 58/2/4 59/2/4
f 59/2/4 58/2/4 60/2/4
f 59/1/4 60/1/4 61/1/4
f 61/1/4 60/1/4 62/1/4
f 61/2/4 62/2/4 63/2/4
f 63/2/4 62/2/4 64/2/4
f 63/1/4 64/1/4 65/1/4
f 65/1/4 64/1/4 66/1/4
f 65/2/4 66/2/4 67/2/4
f 67/2/4 66/2/4 68/2/4
f 67/1/4 68/1/4 69/1/4
f 69/1/4 68/1/4 70/1/4
f 74/2/5 72/2/5 71/2/5
f 75/2/5 72/2/5 74/2/5
f 77/2/5 74/2/5 73/2/5
f 78/3/5 75/3/5 74/3/5
f 78/2/5 74/2/5 77/2/5
f 80/1/5 77/1/5 76/1/5
f 81/3/5 78/3/5 77/3/5
f 81/1/5 77/1/5 80/1/5
f 83/1/5 80/1/5 79/1/5
f 84/3/5 81/3/5 80/3/5
f 84/1/5 80/1/5 83/1/5
f 86/2/5 83/2/5 82/2/5
f 87/3/5 84/3/5 83/3/5
f 87/2/5 83/2/5 86/2/5
f 88/3/5 81/3/5 84/3/5
f 88/3/5 84/3/5 87/3/5
f 89/3/5 78/3/5 81/3/5
f 89/3/5 81/3/5 88/3/5
f 90/3/5 75/3/5 78/3/5
f 90/3/5 78/3/5 89/3/5
f 91/3/5 75/3/5 90/3/5
f 92/2/5 86/2/5 85/2/5
f 93/1/5 87/1/5 86/1/5
f 93/2/5 86/2/5 92/2/5
f 94/2/5 88/2/5 87/2/5
f 94/1/5 87/1/5 93/1/5
f 95/1/5 89/1/5 88/1/5
f 95/2/5 88/2/5 94/2/5
f 96/2/5 90/2/5 89/2/5
f 96/1/5 89/1/5 95/1/5
f 97/1/5 91/1/5 90/1/5
f 97/2/5 90/2/5 96/2/5
f 98/1/5 91/1/5 97/1/5
f 99/2/6 100/2/6 102/2/6
f 102/2/6 100/2/6 103/2/6
f 101/2/6 102/2/6 105/2/6
f 102/3/6 103/3/6 106/3/6
f 105/2/6 102/2/6 106/2/6
f 104/1/6 105/1/6 108/1/6
f 105/3/6 106/3/6 109/3/6
f 108/1/6 105/1/6 109/1/6
f 107/1/6 108/1/6 111/1/6
f 108/3/6 109/3/6 112/3/6
f 111/1/6 108/1/6 112/1/6
f 110/2/6 111/2/6 114/2/6
f 111/3/6 112/3/6 115/3/6
f 114/2/6 111/2/6 115/2/6
f 112/3/6 109/3/6 116/3/6
f 115/3/6 112/3/6 116/3/6
f 109/3/6 106/3/6 117/3/6
f 116/3/6 109/3/6 117/3/6
f 106/3/6 103/3/6 118/3/6
f 117/3/6 106/3/6 118/3/6
f 118/3/6 103/3/6 119/3/6
f 113/2/6 114/2/6 120/2/6
f 114/1/6 115/1/6 121/1/6
f 120/2/6 114/2/6 121/2/6
f 115/2/6 116/2/6 122/2/6
f 121/1/6 115/1/6 122/1/6
f 116/1/6 117/1/6 123/1/6
f 122/2/6 116/2/6 123/2/6
f 117/2/6 118/2/6 124/2/6
f 123/1/6 117/1/6 124/1/6
f 118/1/6 119/1/6 125/1/6
f 124/2/6 118/2/6 125/2/6
f 125/1/6 119/1/6 126/1/6
