# MagicaVoxel @ Ephtracy

# group
o 

# material
mtllib UBlock.mtl
usemtl palette

# normals
vn -1 0 0
vn 1 0 0
vn 0 0 1
vn 0 0 -1
vn 0 -1 0
vn 0 1 0

# texcoords
vt 0.958984 0.5
vt 0.966797 0.5
vt 0.978516 0.5
vt 0.994141 0.5

# verts
v -0.3 0 0.3
v -0.3 0 -0.2
v -0.3 0 -0.3
v -0.3 0.3 0.3
v -0.3 0.3 -0.2
v -0.3 0.3 -0.3
v 0.3 0 0.3
v 0.3 0 0.2
v 0.3 0 0.1
v 0.3 0 0
v 0.3 0 -0.1
v 0.3 0 -0.2
v 0.3 0 -0.3
v 0.3 0.3 0.3
v 0.3 0.3 0.2
v 0.3 0.3 0.1
v 0.3 0.3 0
v 0.3 0.3 -0.1
v 0.3 0.3 -0.2
v 0.3 0.3 -0.3
v -0.3 0 0.3
v -0.3 0.3 0.3
v -0.2 0 0.3
v -0.2 0.3 0.3
v -0.1 0 0.3
v -0.1 0.3 0.3
v 0 0 0.3
v 0 0.3 0.3
v 0.1 0 0.3
v 0.1 0.3 0.3
v 0.2 0 0.3
v 0.2 0.3 0.3
v 0.3 0 0.3
v 0.3 0.3 0.3
v -0.3 0 -0.3
v -0.3 0.3 -0.3
v -0.2 0 -0.3
v -0.2 0.3 -0.3
v -0.1 0 -0.3
v -0.1 0.3 -0.3
v 0 0 -0.3
v 0 0.3 -0.3
v 0.1 0 -0.3
v 0.1 0.3 -0.3
v 0.2 0 -0.3
v 0.2 0.3 -0.3
v 0.3 0 -0.3
v 0.3 0.3 -0.3
v -0.3 0 0.3
v -0.2 0 0.3
v -0.1 0 0.3
v 0 0 0.3
v 0.1 0 0.3
v 0.2 0 0.3
v 0.3 0 0.3
v -0.2 0 0.2
v -0.1 0 0.2
v 0 0 0.2
v 0.1 0 0.2
v 0.2 0 0.2
v 0.3 0 0.2
v -0.1 0 0.1
v 0.1 0 0.1
v 0.2 0 0.1
v 0.3 0 0.1
v 0.2 0 0
v 0.3 0 0
v -0.1 0 -0.1
v 0.1 0 -0.1
v 0.2 0 -0.1
v 0.3 0 -0.1
v -0.3 0 -0.2
v -0.2 0 -0.2
v -0.1 0 -0.2
v 0 0 -0.2
v 0.1 0 -0.2
v 0.2 0 -0.2
v 0.3 0 -0.2
v -0.3 0 -0.3
v -0.2 0 -0.3
v -0.1 0 -0.3
v 0 0 -0.3
v 0.1 0 -0.3
v 0.2 0 -0.3
v 0.3 0 -0.3
v -0.3 0.3 0.3
v -0.2 0.3 0.3
v -0.1 0.3 0.3
v 0 0.3 0.3
v 0.1 0.3 0.3
v 0.2 0.3 0.3
v 0.3 0.3 0.3
v -0.2 0.3 0.2
v -0.1 0.3 0.2
v 0 0.3 0.2
v 0.1 0.3 0.2
v 0.2 0.3 0.2
v 0.3 0.3 0.2
v -0.1 0.3 0.1
v 0.1 0.3 0.1
v 0.2 0.3 0.1
v 0.3 0.3 0.1
v 0.2 0.3 0
v 0.3 0.3 0
v -0.1 0.3 -0.1
v 0.1 0.3 -0.1
v 0.2 0.3 -0.1
v 0.3 0.3 -0.1
v -0.3 0.3 -0.2
v -0.2 0.3 -0.2
v -0.1 0.3 -0.2
v 0 0.3 -0.2
v 0.1 0.3 -0.2
v 0.2 0.3 -0.2
v 0.3 0.3 -0.2
v -0.3 0.3 -0.3
v -0.2 0.3 -0.3
v -0.1 0.3 -0.3
v 0 0.3 -0.3
v 0.1 0.3 -0.3
v 0.2 0.3 -0.3
v 0.3 0.3 -0.3

# faces
f 4/1/1 2/1/1 1/1/1
f 5/2/1 3/2/1 2/2/1
f 5/1/1 2/1/1 4/1/1
f 6/2/1 3/2/1 5/2/1
f 7/2/2 8/2/2 14/2/2
f 8/1/2 9/1/2 15/1/2
f 14/2/2 8/2/2 15/2/2
f 9/2/2 10/2/2 16/2/2
f 15/1/2 9/1/2 16/1/2
f 10/1/2 11/1/2 17/1/2
f 16/2/2 10/2/2 17/2/2
f 11/2/2 12/2/2 18/2/2
f 17/1/2 11/1/2 18/1/2
f 12/1/2 13/1/2 19/1/2
f 18/2/2 12/2/2 19/2/2
f 19/1/2 13/1/2 20/1/2
f 23/1/3 22/1/3 21/1/3
f 24/1/3 22/1/3 23/1/3
f 25/2/3 24/2/3 23/2/3
f 26/2/3 24/2/3 25/2/3
f 27/1/3 26/1/3 25/1/3
f 28/1/3 26/1/3 27/1/3
f 29/2/3 28/2/3 27/2/3
f 30/2/3 28/2/3 29/2/3
f 31/1/3 30/1/3 29/1/3
f 32/1/3 30/1/3 31/1/3
f 33/2/3 32/2/3 31/2/3
f 34/2/3 32/2/3 33/2/3
f 35/2/4 36/2/4 37/2/4
f 37/2/4 36/2/4 38/2/4
f 37/1/4 38/1/4 39/1/4
f 39/1/4 38/1/4 40/1/4
f 39/2/4 40/2/4 41/2/4
f 41/2/4 40/2/4 42/2/4
f 41/1/4 42/1/4 43/1/4
f 43/1/4 42/1/4 44/1/4
f 43/2/4 44/2/4 45/2/4
f 45/2/4 44/2/4 46/2/4
f 45/1/4 46/1/4 47/1/4
f 47/1/4 46/1/4 48/1/4
f 56/1/5 50/1/5 49/1/5
f 56/2/5 51/2/5 50/2/5
f 57/1/5 52/1/5 51/1/5
f 57/2/5 51/2/5 56/2/5
f 58/2/5 53/2/5 52/2/5
f 58/1/5 52/1/5 57/1/5
f 59/1/5 54/1/5 53/1/5
f 59/2/5 53/2/5 58/2/5
f 60/2/5 55/2/5 54/2/5
f 60/1/5 54/1/5 59/1/5
f 61/2/5 55/2/5 60/2/5
f 62/1/5 59/1/5 58/1/5
f 62/1/5 58/1/5 57/1/5
f 62/1/5 61/1/5 60/1/5
f 62/1/5 60/1/5 59/1/5
f 62/1/5 57/1/5 56/1/5
f 63/1/5 61/1/5 62/1/5
f 64/1/5 61/1/5 63/1/5
f 65/1/5 61/1/5 64/1/5
f 66/1/5 64/1/5 63/1/5
f 66/2/5 65/2/5 64/2/5
f 67/2/5 65/2/5 66/2/5
f 68/1/5 62/1/5 56/1/5
f 68/4/5 63/4/5 62/4/5
f 69/1/5 67/1/5 66/1/5
f 69/4/5 63/4/5 68/4/5
f 69/1/5 66/1/5 63/1/5
f 70/1/5 67/1/5 69/1/5
f 71/1/5 67/1/5 70/1/5
f 72/1/5 56/1/5 49/1/5
f 72/1/5 68/1/5 56/1/5
f 72/1/5 69/1/5 68/1/5
f 72/1/5 70/1/5 69/1/5
f 73/1/5 70/1/5 72/1/5
f 74/1/5 70/1/5 73/1/5
f 75/1/5 70/1/5 74/1/5
f 76/1/5 70/1/5 75/1/5
f 77/2/5 71/2/5 70/2/5
f 77/1/5 70/1/5 76/1/5
f 78/2/5 71/2/5 77/2/5
f 79/2/5 73/2/5 72/2/5
f 80/1/5 74/1/5 73/1/5
f 80/2/5 73/2/5 79/2/5
f 81/2/5 75/2/5 74/2/5
f 81/1/5 74/1/5 80/1/5
f 82/1/5 76/1/5 75/1/5
f 82/2/5 75/2/5 81/2/5
f 83/2/5 77/2/5 76/2/5
f 83/1/5 76/1/5 82/1/5
f 84/1/5 78/1/5 77/1/5
f 84/2/5 77/2/5 83/2/5
f 85/1/5 78/1/5 84/1/5
f 86/1/6 87/1/6 93/1/6
f 87/2/6 88/2/6 93/2/6
f 88/1/6 89/1/6 94/1/6
f 93/2/6 88/2/6 94/2/6
f 89/2/6 90/2/6 95/2/6
f 94/1/6 89/1/6 95/1/6
f 90/1/6 91/1/6 96/1/6
f 95/2/6 90/2/6 96/2/6
f 91/2/6 92/2/6 97/2/6
f 96/1/6 91/1/6 97/1/6
f 97/2/6 92/2/6 98/2/6
f 95/1/6 96/1/6 99/1/6
f 94/1/6 95/1/6 99/1/6
f 97/1/6 98/1/6 99/1/6
f 96/1/6 97/1/6 99/1/6
f 93/1/6 94/1/6 99/1/6
f 99/1/6 98/1/6 100/1/6
f 100/1/6 98/1/6 101/1/6
f 101/1/6 98/1/6 102/1/6
f 100/1/6 101/1/6 103/1/6
f 101/2/6 102/2/6 103/2/6
f 103/2/6 102/2/6 104/2/6
f 93/1/6 99/1/6 105/1/6
f 99/4/6 100/4/6 105/4/6
f 103/1/6 104/1/6 106/1/6
f 105/4/6 100/4/6 106/4/6
f 100/1/6 103/1/6 106/1/6
f 106/1/6 104/1/6 107/1/6
f 107/1/6 104/1/6 108/1/6
f 86/1/6 93/1/6 109/1/6
f 93/1/6 105/1/6 109/1/6
f 105/1/6 106/1/6 109/1/6
f 106/1/6 107/1/6 109/1/6
f 109/1/6 107/1/6 110/1/6
f 110/1/6 107/1/6 111/1/6
f 111/1/6 107/1/6 112/1/6
f 112/1/6 107/1/6 113/1/6
f 107/2/6 108/2/6 114/2/6
f 113/1/6 107/1/6 114/1/6
f 114/2/6 108/2/6 115/2/6
f 109/2/6 110/2/6 116/2/6
f 110/1/6 111/1/6 117/1/6
f 116/2/6 110/2/6 117/2/6
f 111/2/6 112/2/6 118/2/6
f 117/1/6 111/1/6 118/1/6
f 112/1/6 113/1/6 119/1/6
f 118/2/6 112/2/6 119/2/6
f 113/2/6 114/2/6 120/2/6
f 119/1/6 113/1/6 120/1/6
f 114/1/6 115/1/6 121/1/6
f 120/2/6 114/2/6 121/2/6
f 121/1/6 115/1/6 122/1/6
