# MagicaVoxel @ Ephtracy

# group
o 

# material
mtllib Side Triangle.mtl
usemtl palette

# normals
vn -1 0 0
vn 1 0 0
vn 0 0 1
vn 0 0 -1
vn 0 -1 0
vn 0 1 0

# texcoords
vt 0.958984 0.5
vt 0.962891 0.5
vt 0.978516 0.5

# verts
v -0.3 0 0.3
v -0.3 0 0.2
v -0.3 0 -0.3
v -0.3 0.6 0.3
v -0.3 0.6 0.2
v -0.3 0.6 -0.3
v -0.2 0 0.3
v -0.2 0 0.2
v -0.2 0.6 0.3
v -0.2 0.6 0.2
v -0.1 0 0.2
v -0.1 0 0.1
v -0.1 0.6 0.2
v -0.1 0.6 0.1
v 0 0 0.1
v 0 0 0
v 0 0.6 0.1
v 0 0.6 0
v 0.1 0 0
v 0.1 0 -0.1
v 0.1 0.6 0
v 0.1 0.6 -0.1
v 0.2 0 -0.1
v 0.2 0 -0.2
v 0.2 0.6 -0.1
v 0.2 0.6 -0.2
v 0.3 0 -0.2
v 0.3 0 -0.3
v 0.3 0.6 -0.2
v 0.3 0.6 -0.3
v -0.3 0 0.3
v -0.3 0.6 0.3
v -0.2 0 0.3
v -0.2 0.6 0.3
v -0.2 0 0.2
v -0.2 0.6 0.2
v -0.1 0 0.2
v -0.1 0.6 0.2
v -0.1 0 0.1
v -0.1 0.6 0.1
v 0 0 0.1
v 0 0.6 0.1
v 0 0 0
v 0 0.6 0
v 0.1 0 0
v 0.1 0.6 0
v 0.1 0 -0.1
v 0.1 0.6 -0.1
v 0.2 0 -0.1
v 0.2 0.6 -0.1
v 0.2 0 -0.2
v 0.2 0.6 -0.2
v 0.3 0 -0.2
v 0.3 0.6 -0.2
v -0.3 0 -0.3
v -0.3 0.6 -0.3
v 0.2 0 -0.3
v 0.2 0.6 -0.3
v 0.3 0 -0.3
v 0.3 0.6 -0.3
v -0.3 0 0.3
v -0.2 0 0.3
v -0.3 0 0.2
v -0.2 0 0.2
v -0.1 0 0.2
v -0.2 0 0.1
v -0.1 0 0.1
v 0 0 0.1
v -0.1 0 0
v 0 0 0
v 0.1 0 0
v 0 0 -0.1
v 0.1 0 -0.1
v 0.2 0 -0.1
v 0.1 0 -0.2
v 0.2 0 -0.2
v 0.3 0 -0.2
v -0.3 0 -0.3
v 0.2 0 -0.3
v 0.3 0 -0.3
v -0.3 0.6 0.3
v -0.2 0.6 0.3
v -0.3 0.6 0.2
v -0.2 0.6 0.2
v -0.1 0.6 0.2
v -0.2 0.6 0.1
v -0.1 0.6 0.1
v 0 0.6 0.1
v -0.1 0.6 0
v 0 0.6 0
v 0.1 0.6 0
v 0 0.6 -0.1
v 0.1 0.6 -0.1
v 0.2 0.6 -0.1
v 0.1 0.6 -0.2
v 0.2 0.6 -0.2
v 0.3 0.6 -0.2
v -0.3 0.6 -0.3
v 0.2 0.6 -0.3
v 0.3 0.6 -0.3

# faces
f 4/1/1 2/1/1 1/1/1
f 5/3/1 3/3/1 2/3/1
f 5/1/1 2/1/1 4/1/1
f 6/3/1 3/3/1 5/3/1
f 7/1/2 8/1/2 9/1/2
f 9/1/2 8/1/2 10/1/2
f 11/2/2 12/2/2 13/2/2
f 13/2/2 12/2/2 14/2/2
f 15/1/2 16/1/2 17/1/2
f 17/1/2 16/1/2 18/1/2
f 19/2/2 20/2/2 21/2/2
f 21/2/2 20/2/2 22/2/2
f 23/1/2 24/1/2 25/1/2
f 25/1/2 24/1/2 26/1/2
f 27/2/2 28/2/2 29/2/2
f 29/2/2 28/2/2 30/2/2
f 33/1/3 32/1/3 31/1/3
f 34/1/3 32/1/3 33/1/3
f 37/2/3 36/2/3 35/2/3
f 38/2/3 36/2/3 37/2/3
f 41/1/3 40/1/3 39/1/3
f 42/1/3 40/1/3 41/1/3
f 45/2/3 44/2/3 43/2/3
f 46/2/3 44/2/3 45/2/3
f 49/1/3 48/1/3 47/1/3
f 50/1/3 48/1/3 49/1/3
f 53/2/3 52/2/3 51/2/3
f 54/2/3 52/2/3 53/2/3
f 55/3/4 56/3/4 57/3/4
f 57/3/4 56/3/4 58/3/4
f 57/2/4 58/2/4 59/2/4
f 59/2/4 58/2/4 60/2/4
f 63/1/5 62/1/5 61/1/5
f 64/1/5 62/1/5 63/1/5
f 66/3/5 64/3/5 63/3/5
f 66/2/5 65/2/5 64/2/5
f 67/2/5 65/2/5 66/2/5
f 69/3/5 67/3/5 66/3/5
f 69/1/5 68/1/5 67/1/5
f 70/1/5 68/1/5 69/1/5
f 72/3/5 70/3/5 69/3/5
f 72/2/5 71/2/5 70/2/5
f 73/2/5 71/2/5 72/2/5
f 75/3/5 73/3/5 72/3/5
f 75/1/5 74/1/5 73/1/5
f 76/1/5 74/1/5 75/1/5
f 78/3/5 66/3/5 63/3/5
f 78/3/5 69/3/5 66/3/5
f 78/3/5 76/3/5 75/3/5
f 78/3/5 75/3/5 72/3/5
f 78/3/5 72/3/5 69/3/5
f 79/2/5 77/2/5 76/2/5
f 79/3/5 76/3/5 78/3/5
f 80/2/5 77/2/5 79/2/5
f 81/1/6 82/1/6 83/1/6
f 83/1/6 82/1/6 84/1/6
f 83/3/6 84/3/6 86/3/6
f 84/2/6 85/2/6 86/2/6
f 86/2/6 85/2/6 87/2/6
f 86/3/6 87/3/6 89/3/6
f 87/1/6 88/1/6 89/1/6
f 89/1/6 88/1/6 90/1/6
f 89/3/6 90/3/6 92/3/6
f 90/2/6 91/2/6 92/2/6
f 92/2/6 91/2/6 93/2/6
f 92/3/6 93/3/6 95/3/6
f 93/1/6 94/1/6 95/1/6
f 95/1/6 94/1/6 96/1/6
f 83/3/6 86/3/6 98/3/6
f 86/3/6 89/3/6 98/3/6
f 95/3/6 96/3/6 98/3/6
f 92/3/6 95/3/6 98/3/6
f 89/3/6 92/3/6 98/3/6
f 96/2/6 97/2/6 99/2/6
f 98/3/6 96/3/6 99/3/6
f 99/2/6 97/2/6 100/2/6
