# MagicaVoxel @ Ephtracy

# group
o 

# material
mtllib Side Block Unink.mtl
usemtl palette

# normals
vn -1 0 0
vn 1 0 0
vn 0 0 1
vn 0 0 -1
vn 0 -1 0
vn 0 1 0

# texcoords
vt 0.958984 0.5
vt 0.966797 0.5
vt 0.978516 0.5
vt 0.994141 0.5

# verts
v -0.3 0 0.3
v -0.3 0 0.2
v -0.3 0 -0.2
v -0.3 0 -0.3
v -0.3 0.6 0.3
v -0.3 0.6 0.2
v -0.3 0.6 -0.2
v -0.3 0.6 -0.3
v 0.3 0 0.3
v 0.3 0 0.2
v 0.3 0 -0.2
v 0.3 0 -0.3
v 0.3 0.6 0.3
v 0.3 0.6 0.2
v 0.3 0.6 -0.2
v 0.3 0.6 -0.3
v -0.3 0 0.3
v -0.3 0.6 0.3
v 0.3 0 0.3
v 0.3 0.6 0.3
v -0.3 0 -0.3
v -0.3 0.6 -0.3
v -0.2 0 -0.3
v -0.2 0.6 -0.3
v 0.2 0 -0.3
v 0.2 0.6 -0.3
v 0.3 0 -0.3
v 0.3 0.6 -0.3
v -0.3 0 0.3
v 0.3 0 0.3
v -0.3 0 0.2
v 0.3 0 0.2
v -0.1 0 0.1
v 0.1 0 0.1
v -0.1 0 -0.1
v 0.1 0 -0.1
v -0.3 0 -0.2
v -0.2 0 -0.2
v 0.2 0 -0.2
v 0.3 0 -0.2
v -0.3 0 -0.3
v -0.2 0 -0.3
v 0.2 0 -0.3
v 0.3 0 -0.3
v -0.3 0.6 0.3
v 0.3 0.6 0.3
v -0.3 0.6 0.2
v 0.3 0.6 0.2
v -0.1 0.6 0.1
v 0.1 0.6 0.1
v -0.1 0.6 -0.1
v 0.1 0.6 -0.1
v -0.3 0.6 -0.2
v -0.2 0.6 -0.2
v 0.2 0.6 -0.2
v 0.3 0.6 -0.2
v -0.3 0.6 -0.3
v -0.2 0.6 -0.3
v 0.2 0.6 -0.3
v 0.3 0.6 -0.3

# faces
f 5/1/1 2/1/1 1/1/1
f 6/2/1 3/2/1 2/2/1
f 6/1/1 2/1/1 5/1/1
f 7/4/1 4/4/1 3/4/1
f 7/2/1 3/2/1 6/2/1
f 8/4/1 4/4/1 7/4/1
f 9/1/2 10/1/2 13/1/2
f 10/2/2 11/2/2 14/2/2
f 13/1/2 10/1/2 14/1/2
f 11/4/2 12/4/2 15/4/2
f 14/2/2 11/2/2 15/2/2
f 15/4/2 12/4/2 16/4/2
f 19/1/3 18/1/3 17/1/3
f 20/1/3 18/1/3 19/1/3
f 21/4/4 22/4/4 23/4/4
f 23/4/4 22/4/4 24/4/4
f 23/2/4 24/2/4 25/2/4
f 25/2/4 24/2/4 26/2/4
f 25/4/4 26/4/4 27/4/4
f 27/4/4 26/4/4 28/4/4
f 31/1/5 30/1/5 29/1/5
f 32/1/5 30/1/5 31/1/5
f 33/2/5 32/2/5 31/2/5
f 34/2/5 32/2/5 33/2/5
f 35/2/5 33/2/5 31/2/5
f 35/4/5 34/4/5 33/4/5
f 36/2/5 32/2/5 34/2/5
f 36/4/5 34/4/5 35/4/5
f 37/2/5 35/2/5 31/2/5
f 37/2/5 36/2/5 35/2/5
f 38/2/5 36/2/5 37/2/5
f 39/2/5 32/2/5 36/2/5
f 39/2/5 36/2/5 38/2/5
f 40/2/5 32/2/5 39/2/5
f 41/4/5 38/4/5 37/4/5
f 42/2/5 39/2/5 38/2/5
f 42/4/5 38/4/5 41/4/5
f 43/4/5 40/4/5 39/4/5
f 43/2/5 39/2/5 42/2/5
f 44/4/5 40/4/5 43/4/5
f 45/1/6 46/1/6 47/1/6
f 47/1/6 46/1/6 48/1/6
f 47/2/6 48/2/6 49/2/6
f 49/2/6 48/2/6 50/2/6
f 47/2/6 49/2/6 51/2/6
f 49/4/6 50/4/6 51/4/6
f 50/2/6 48/2/6 52/2/6
f 51/4/6 50/4/6 52/4/6
f 47/2/6 51/2/6 53/2/6
f 51/2/6 52/2/6 53/2/6
f 53/2/6 52/2/6 54/2/6
f 52/2/6 48/2/6 55/2/6
f 54/2/6 52/2/6 55/2/6
f 55/2/6 48/2/6 56/2/6
f 53/4/6 54/4/6 57/4/6
f 54/2/6 55/2/6 58/2/6
f 57/4/6 54/4/6 58/4/6
f 55/4/6 56/4/6 59/4/6
f 58/2/6 55/2/6 59/2/6
f 59/4/6 56/4/6 60/4/6
