# MagicaVoxel @ Ephtracy

# group
o 

# material
mtllib MiddleBlock.mtl
usemtl palette

# normals
vn -1 0 0
vn 1 0 0
vn 0 0 1
vn 0 0 -1
vn 0 -1 0
vn 0 1 0

# texcoords
vt 0.958984 0.5
vt 0.978516 0.5
vt 0.994141 0.5

# verts
v -0.3 0 0.3
v -0.3 0 0.2
v -0.3 0 -0.2
v -0.3 0 -0.3
v -0.3 0.6 0.3
v -0.3 0.6 0.2
v -0.3 0.6 -0.2
v -0.3 0.6 -0.3
v 0.3 0 0.3
v 0.3 0 0.2
v 0.3 0 -0.2
v 0.3 0 -0.3
v 0.3 0.6 0.3
v 0.3 0.6 0.2
v 0.3 0.6 -0.2
v 0.3 0.6 -0.3
v -0.3 0 0.3
v -0.3 0.6 0.3
v -0.2 0 0.3
v -0.2 0.6 0.3
v 0.2 0 0.3
v 0.2 0.6 0.3
v 0.3 0 0.3
v 0.3 0.6 0.3
v -0.3 0 -0.3
v -0.3 0.6 -0.3
v -0.2 0 -0.3
v -0.2 0.6 -0.3
v 0.2 0 -0.3
v 0.2 0.6 -0.3
v 0.3 0 -0.3
v 0.3 0.6 -0.3
v -0.3 0 0.3
v -0.2 0 0.3
v 0.2 0 0.3
v 0.3 0 0.3
v -0.3 0 0.2
v -0.2 0 0.2
v 0.2 0 0.2
v 0.3 0 0.2
v -0.1 0 0.1
v 0.1 0 0.1
v -0.1 0 -0.1
v 0.1 0 -0.1
v -0.3 0 -0.2
v -0.2 0 -0.2
v 0.2 0 -0.2
v 0.3 0 -0.2
v -0.3 0 -0.3
v -0.2 0 -0.3
v 0.2 0 -0.3
v 0.3 0 -0.3
v -0.3 0.6 0.3
v -0.2 0.6 0.3
v 0.2 0.6 0.3
v 0.3 0.6 0.3
v -0.3 0.6 0.2
v -0.2 0.6 0.2
v 0.2 0.6 0.2
v 0.3 0.6 0.2
v -0.1 0.6 0.1
v 0.1 0.6 0.1
v -0.1 0.6 -0.1
v 0.1 0.6 -0.1
v -0.3 0.6 -0.2
v -0.2 0.6 -0.2
v 0.2 0.6 -0.2
v 0.3 0.6 -0.2
v -0.3 0.6 -0.3
v -0.2 0.6 -0.3
v 0.2 0.6 -0.3
v 0.3 0.6 -0.3

# faces
f 5/3/1 2/3/1 1/3/1
f 6/1/1 3/1/1 2/1/1
f 6/3/1 2/3/1 5/3/1
f 7/3/1 4/3/1 3/3/1
f 7/1/1 3/1/1 6/1/1
f 8/3/1 4/3/1 7/3/1
f 9/3/2 10/3/2 13/3/2
f 10/1/2 11/1/2 14/1/2
f 13/3/2 10/3/2 14/3/2
f 11/3/2 12/3/2 15/3/2
f 14/1/2 11/1/2 15/1/2
f 15/3/2 12/3/2 16/3/2
f 19/3/3 18/3/3 17/3/3
f 20/3/3 18/3/3 19/3/3
f 21/1/3 20/1/3 19/1/3
f 22/1/3 20/1/3 21/1/3
f 23/3/3 22/3/3 21/3/3
f 24/3/3 22/3/3 23/3/3
f 25/3/4 26/3/4 27/3/4
f 27/3/4 26/3/4 28/3/4
f 27/1/4 28/1/4 29/1/4
f 29/1/4 28/1/4 30/1/4
f 29/3/4 30/3/4 31/3/4
f 31/3/4 30/3/4 32/3/4
f 37/3/5 34/3/5 33/3/5
f 38/1/5 35/1/5 34/1/5
f 38/3/5 34/3/5 37/3/5
f 39/3/5 36/3/5 35/3/5
f 39/1/5 35/1/5 38/1/5
f 40/3/5 36/3/5 39/3/5
f 41/1/5 38/1/5 37/1/5
f 41/1/5 39/1/5 38/1/5
f 41/1/5 40/1/5 39/1/5
f 42/1/5 40/1/5 41/1/5
f 43/1/5 41/1/5 37/1/5
f 43/3/5 42/3/5 41/3/5
f 44/1/5 40/1/5 42/1/5
f 44/3/5 42/3/5 43/3/5
f 45/1/5 43/1/5 37/1/5
f 45/1/5 44/1/5 43/1/5
f 46/1/5 44/1/5 45/1/5
f 47/1/5 40/1/5 44/1/5
f 47/1/5 44/1/5 46/1/5
f 48/1/5 40/1/5 47/1/5
f 49/3/5 46/3/5 45/3/5
f 50/1/5 47/1/5 46/1/5
f 50/3/5 46/3/5 49/3/5
f 51/3/5 48/3/5 47/3/5
f 51/1/5 47/1/5 50/1/5
f 52/3/5 48/3/5 51/3/5
f 53/3/6 54/3/6 57/3/6
f 54/1/6 55/1/6 58/1/6
f 57/3/6 54/3/6 58/3/6
f 55/3/6 56/3/6 59/3/6
f 58/1/6 55/1/6 59/1/6
f 59/3/6 56/3/6 60/3/6
f 57/1/6 58/1/6 61/1/6
f 58/1/6 59/1/6 61/1/6
f 59/1/6 60/1/6 61/1/6
f 61/1/6 60/1/6 62/1/6
f 57/1/6 61/1/6 63/1/6
f 61/3/6 62/3/6 63/3/6
f 62/1/6 60/1/6 64/1/6
f 63/3/6 62/3/6 64/3/6
f 57/1/6 63/1/6 65/1/6
f 63/1/6 64/1/6 65/1/6
f 65/1/6 64/1/6 66/1/6
f 64/1/6 60/1/6 67/1/6
f 66/1/6 64/1/6 67/1/6
f 67/1/6 60/1/6 68/1/6
f 65/3/6 66/3/6 69/3/6
f 66/1/6 67/1/6 70/1/6
f 69/3/6 66/3/6 70/3/6
f 67/3/6 68/3/6 71/3/6
f 70/1/6 67/1/6 71/1/6
f 71/3/6 68/3/6 72/3/6
