# MagicaVoxel @ Ephtracy

# group
o 

# material
mtllib CornerBlockC.mtl
usemtl palette

# normals
vn -1 0 0
vn 1 0 0
vn 0 0 1
vn 0 0 -1
vn 0 -1 0
vn 0 1 0

# texcoords
vt 0.958984 0.5
vt 0.966797 0.5
vt 0.978516 0.5

# verts
v -0.3 0 0.3
v -0.3 0 0.2
v -0.3 0 0.1
v -0.3 0 0
v -0.3 0 -0.1
v -0.3 0 -0.2
v -0.3 0 -0.3
v -0.3 0.1 -0.2
v -0.3 0.1 -0.3
v -0.3 0.2 -0.1
v -0.3 0.2 -0.2
v -0.3 0.3 0
v -0.3 0.3 -0.1
v -0.3 0.4 0.1
v -0.3 0.4 0
v -0.3 0.5 0.2
v -0.3 0.5 0.1
v -0.3 0.6 0.3
v -0.3 0.6 0.2
v -0.2 0.1 -0.2
v -0.2 0.1 -0.3
v -0.2 0.2 -0.2
v -0.2 0.2 -0.3
v -0.1 0.2 -0.1
v -0.1 0.2 -0.3
v -0.1 0.3 -0.1
v -0.1 0.3 -0.3
v 0 0.3 0
v 0 0.3 -0.3
v 0 0.4 0
v 0 0.4 -0.3
v 0.1 0.4 0.1
v 0.1 0.4 -0.3
v 0.1 0.5 0.1
v 0.1 0.5 -0.3
v 0.2 0.5 0.2
v 0.2 0.5 -0.3
v 0.2 0.6 0.2
v 0.2 0.6 -0.3
v 0.3 0 0.3
v 0.3 0 -0.3
v 0.3 0.6 0.3
v 0.3 0.6 -0.3
v -0.3 0 0.3
v -0.3 0.6 0.3
v -0.2 0 0.3
v -0.2 0.6 0.3
v 0.3 0 0.3
v 0.3 0.6 0.3
v -0.3 0.5 0.2
v -0.3 0.6 0.2
v -0.2 0.5 0.2
v -0.2 0.6 0.2
v 0.2 0.5 0.2
v 0.2 0.6 0.2
v -0.3 0.4 0.1
v -0.3 0.5 0.1
v -0.2 0.4 0.1
v -0.2 0.5 0.1
v 0.1 0.4 0.1
v 0.1 0.5 0.1
v -0.3 0.3 0
v -0.3 0.4 0
v -0.2 0.3 0
v -0.2 0.4 0
v 0 0.3 0
v 0 0.4 0
v -0.3 0.2 -0.1
v -0.3 0.3 -0.1
v -0.2 0.2 -0.1
v -0.2 0.3 -0.1
v -0.1 0.2 -0.1
v -0.1 0.3 -0.1
v -0.3 0.1 -0.2
v -0.3 0.2 -0.2
v -0.2 0.1 -0.2
v -0.2 0.2 -0.2
v -0.3 0 -0.3
v -0.3 0.1 -0.3
v -0.2 0.1 -0.3
v -0.2 0.2 -0.3
v -0.1 0.2 -0.3
v -0.1 0.3 -0.3
v 0 0.3 -0.3
v 0 0.4 -0.3
v 0.1 0.4 -0.3
v 0.1 0.5 -0.3
v 0.2 0.5 -0.3
v 0.2 0.6 -0.3
v 0.3 0 -0.3
v 0.3 0.6 -0.3
v -0.3 0 0.3
v -0.2 0 0.3
v 0.3 0 0.3
v -0.3 0 0.2
v -0.2 0 0.2
v -0.3 0 0.1
v -0.2 0 0.1
v -0.3 0 0
v -0.2 0 0
v -0.3 0 -0.1
v -0.2 0 -0.1
v -0.3 0 -0.2
v -0.2 0 -0.2
v -0.3 0 -0.3
v 0.3 0 -0.3
v -0.3 0.1 -0.2
v -0.2 0.1 -0.2
v -0.3 0.1 -0.3
v -0.2 0.1 -0.3
v -0.3 0.2 -0.1
v -0.2 0.2 -0.1
v -0.1 0.2 -0.1
v -0.3 0.2 -0.2
v -0.2 0.2 -0.2
v -0.2 0.2 -0.3
v -0.1 0.2 -0.3
v -0.3 0.3 0
v -0.2 0.3 0
v 0 0.3 0
v -0.3 0.3 -0.1
v -0.2 0.3 -0.1
v -0.1 0.3 -0.1
v -0.1 0.3 -0.3
v 0 0.3 -0.3
v -0.3 0.4 0.1
v -0.2 0.4 0.1
v 0.1 0.4 0.1
v -0.3 0.4 0
v -0.2 0.4 0
v 0 0.4 0
v 0 0.4 -0.3
v 0.1 0.4 -0.3
v -0.3 0.5 0.2
v -0.2 0.5 0.2
v 0.2 0.5 0.2
v -0.3 0.5 0.1
v -0.2 0.5 0.1
v 0.1 0.5 0.1
v 0.1 0.5 -0.3
v 0.2 0.5 -0.3
v -0.3 0.6 0.3
v -0.2 0.6 0.3
v 0.3 0.6 0.3
v -0.3 0.6 0.2
v -0.2 0.6 0.2
v 0.2 0.6 0.2
v 0.2 0.6 -0.3
v 0.3 0.6 -0.3

# faces
f 8/2/1 6/2/1 5/2/1
f 8/3/1 7/3/1 6/3/1
f 9/3/1 7/3/1 8/3/1
f 10/1/1 5/1/1 4/1/1
f 10/2/1 8/2/1 5/2/1
f 11/2/1 8/2/1 10/2/1
f 12/2/1 4/2/1 3/2/1
f 12/1/1 10/1/1 4/1/1
f 13/1/1 10/1/1 12/1/1
f 14/1/1 3/1/1 2/1/1
f 14/2/1 12/2/1 3/2/1
f 15/2/1 12/2/1 14/2/1
f 16/2/1 2/2/1 1/2/1
f 16/1/1 14/1/1 2/1/1
f 17/1/1 14/1/1 16/1/1
f 18/2/1 16/2/1 1/2/1
f 19/2/1 16/2/1 18/2/1
f 22/3/1 21/3/1 20/3/1
f 23/3/1 21/3/1 22/3/1
f 26/3/1 25/3/1 24/3/1
f 27/3/1 25/3/1 26/3/1
f 30/3/1 29/3/1 28/3/1
f 31/3/1 29/3/1 30/3/1
f 34/3/1 33/3/1 32/3/1
f 35/3/1 33/3/1 34/3/1
f 38/3/1 37/3/1 36/3/1
f 39/3/1 37/3/1 38/3/1
f 40/3/2 41/3/2 42/3/2
f 42/3/2 41/3/2 43/3/2
f 46/2/3 45/2/3 44/2/3
f 47/2/3 45/2/3 46/2/3
f 48/3/3 47/3/3 46/3/3
f 49/3/3 47/3/3 48/3/3
f 50/2/4 51/2/4 52/2/4
f 52/2/4 51/2/4 53/2/4
f 52/3/4 53/3/4 54/3/4
f 54/3/4 53/3/4 55/3/4
f 56/1/4 57/1/4 58/1/4
f 58/1/4 57/1/4 59/1/4
f 58/3/4 59/3/4 60/3/4
f 60/3/4 59/3/4 61/3/4
f 62/2/4 63/2/4 64/2/4
f 64/2/4 63/2/4 65/2/4
f 64/3/4 65/3/4 66/3/4
f 66/3/4 65/3/4 67/3/4
f 68/1/4 69/1/4 70/1/4
f 70/1/4 69/1/4 71/1/4
f 70/3/4 71/3/4 72/3/4
f 72/3/4 71/3/4 73/3/4
f 74/2/4 75/2/4 76/2/4
f 76/2/4 75/2/4 77/2/4
f 78/3/4 79/3/4 80/3/4
f 80/3/4 81/3/4 82/3/4
f 82/3/4 83/3/4 84/3/4
f 84/3/4 85/3/4 86/3/4
f 86/3/4 87/3/4 88/3/4
f 78/3/4 80/3/4 90/3/4
f 88/3/4 89/3/4 90/3/4
f 86/3/4 88/3/4 90/3/4
f 84/3/4 86/3/4 90/3/4
f 82/3/4 84/3/4 90/3/4
f 80/3/4 82/3/4 90/3/4
f 90/3/4 89/3/4 91/3/4
f 95/2/5 93/2/5 92/2/5
f 96/3/5 94/3/5 93/3/5
f 96/2/5 93/2/5 95/2/5
f 97/1/5 96/1/5 95/1/5
f 98/3/5 94/3/5 96/3/5
f 98/1/5 96/1/5 97/1/5
f 99/2/5 98/2/5 97/2/5
f 100/3/5 94/3/5 98/3/5
f 100/2/5 98/2/5 99/2/5
f 101/1/5 100/1/5 99/1/5
f 102/3/5 94/3/5 100/3/5
f 102/1/5 100/1/5 101/1/5
f 103/2/5 102/2/5 101/2/5
f 104/3/5 94/3/5 102/3/5
f 104/2/5 102/2/5 103/2/5
f 105/3/5 104/3/5 103/3/5
f 106/3/5 94/3/5 104/3/5
f 106/3/5 104/3/5 105/3/5
f 107/3/6 108/3/6 109/3/6
f 109/3/6 108/3/6 110/3/6
f 111/2/6 112/2/6 114/2/6
f 112/3/6 113/3/6 115/3/6
f 114/2/6 112/2/6 115/2/6
f 115/3/6 113/3/6 116/3/6
f 116/3/6 113/3/6 117/3/6
f 118/1/6 119/1/6 121/1/6
f 119/3/6 120/3/6 122/3/6
f 121/1/6 119/1/6 122/1/6
f 122/3/6 120/3/6 123/3/6
f 123/3/6 120/3/6 124/3/6
f 124/3/6 120/3/6 125/3/6
f 126/2/6 127/2/6 129/2/6
f 127/3/6 128/3/6 130/3/6
f 129/2/6 127/2/6 130/2/6
f 130/3/6 128/3/6 131/3/6
f 131/3/6 128/3/6 132/3/6
f 132/3/6 128/3/6 133/3/6
f 134/1/6 135/1/6 137/1/6
f 135/3/6 136/3/6 138/3/6
f 137/1/6 135/1/6 138/1/6
f 138/3/6 136/3/6 139/3/6
f 139/3/6 136/3/6 140/3/6
f 140/3/6 136/3/6 141/3/6
f 142/2/6 143/2/6 145/2/6
f 143/3/6 144/3/6 146/3/6
f 145/2/6 143/2/6 146/2/6
f 146/3/6 144/3/6 147/3/6
f 147/3/6 144/3/6 148/3/6
f 148/3/6 144/3/6 149/3/6
