# MagicaVoxel @ Ephtracy

# group
o 

# material
mtllib RoadBlockB.mtl
usemtl palette

# normals
vn -1 0 0
vn 1 0 0
vn 0 0 1
vn 0 0 -1
vn 0 -1 0
vn 0 1 0

# texcoords
vt 0.958984 0.5
vt 0.966797 0.5
vt 0.978516 0.5

# verts
v -0.3 0 0.3
v -0.3 0 -0.3
v -0.3 0.2 0.1
v -0.3 0.2 -0.1
v -0.3 0.4 0.2
v -0.3 0.4 0.1
v -0.3 0.4 -0.1
v -0.3 0.4 -0.2
v -0.3 0.6 0.3
v -0.3 0.6 0.2
v -0.3 0.6 -0.2
v -0.3 0.6 -0.3
v 0.3 0 0.3
v 0.3 0 0.2
v 0.3 0 0.1
v 0.3 0 0
v 0.3 0 -0.1
v 0.3 0 -0.2
v 0.3 0 -0.3
v 0.3 0.2 0.1
v 0.3 0.2 0
v 0.3 0.2 -0.1
v 0.3 0.4 0.2
v 0.3 0.4 0.1
v 0.3 0.4 -0.1
v 0.3 0.4 -0.2
v 0.3 0.6 0.3
v 0.3 0.6 0.2
v 0.3 0.6 -0.2
v 0.3 0.6 -0.3
v -0.3 0 0.3
v -0.3 0.6 0.3
v 0.2 0 0.3
v 0.2 0.6 0.3
v 0.3 0 0.3
v 0.3 0.6 0.3
v -0.3 0.2 -0.1
v -0.3 0.4 -0.1
v 0.2 0.2 -0.1
v 0.2 0.4 -0.1
v 0.3 0.2 -0.1
v 0.3 0.4 -0.1
v -0.3 0.4 -0.2
v -0.3 0.6 -0.2
v 0.2 0.4 -0.2
v 0.2 0.6 -0.2
v 0.3 0.4 -0.2
v 0.3 0.6 -0.2
v -0.3 0.4 0.2
v -0.3 0.6 0.2
v 0.2 0.4 0.2
v 0.2 0.6 0.2
v 0.3 0.4 0.2
v 0.3 0.6 0.2
v -0.3 0.2 0.1
v -0.3 0.4 0.1
v 0.2 0.2 0.1
v 0.2 0.4 0.1
v 0.3 0.2 0.1
v 0.3 0.4 0.1
v -0.3 0 -0.3
v -0.3 0.6 -0.3
v 0.2 0 -0.3
v 0.2 0.6 -0.3
v 0.3 0 -0.3
v 0.3 0.6 -0.3
v -0.3 0 0.3
v 0.2 0 0.3
v 0.3 0 0.3
v 0.2 0 0.2
v 0.3 0 0.2
v 0.2 0 0.1
v 0.3 0 0.1
v 0.2 0 0
v 0.3 0 0
v 0.2 0 -0.1
v 0.3 0 -0.1
v 0.2 0 -0.2
v 0.3 0 -0.2
v -0.3 0 -0.3
v 0.2 0 -0.3
v 0.3 0 -0.3
v -0.3 0.2 0.1
v 0.2 0.2 0.1
v 0.3 0.2 0.1
v 0.2 0.2 0
v 0.3 0.2 0
v -0.3 0.2 -0.1
v 0.2 0.2 -0.1
v 0.3 0.2 -0.1
v -0.3 0.4 0.2
v 0.2 0.4 0.2
v 0.3 0.4 0.2
v -0.3 0.4 0.1
v 0.2 0.4 0.1
v 0.3 0.4 0.1
v -0.3 0.4 -0.1
v 0.2 0.4 -0.1
v 0.3 0.4 -0.1
v -0.3 0.4 -0.2
v 0.2 0.4 -0.2
v 0.3 0.4 -0.2
v -0.3 0.6 0.3
v 0.2 0.6 0.3
v 0.3 0.6 0.3
v -0.3 0.6 0.2
v 0.2 0.6 0.2
v 0.3 0.6 0.2
v -0.3 0.6 -0.2
v 0.2 0.6 -0.2
v 0.3 0.6 -0.2
v -0.3 0.6 -0.3
v 0.2 0.6 -0.3
v 0.3 0.6 -0.3

# faces
f 3/3/1 2/3/1 1/3/1
f 4/3/1 2/3/1 3/3/1
f 5/3/1 3/3/1 1/3/1
f 6/3/1 3/3/1 5/3/1
f 7/3/1 2/3/1 4/3/1
f 8/3/1 2/3/1 7/3/1
f 9/3/1 5/3/1 1/3/1
f 10/3/1 5/3/1 9/3/1
f 11/3/1 2/3/1 8/3/1
f 12/3/1 2/3/1 11/3/1
f 14/2/2 15/2/2 20/2/2
f 15/1/2 16/1/2 20/1/2
f 16/2/2 17/2/2 21/2/2
f 20/1/2 16/1/2 21/1/2
f 17/1/2 18/1/2 22/1/2
f 21/2/2 17/2/2 22/2/2
f 13/1/2 14/1/2 23/1/2
f 14/2/2 20/2/2 23/2/2
f 23/2/2 20/2/2 24/2/2
f 22/1/2 18/1/2 25/1/2
f 18/2/2 19/2/2 26/2/2
f 25/1/2 18/1/2 26/1/2
f 13/1/2 23/1/2 27/1/2
f 27/1/2 23/1/2 28/1/2
f 26/2/2 19/2/2 29/2/2
f 29/2/2 19/2/2 30/2/2
f 33/3/3 32/3/3 31/3/3
f 34/3/3 32/3/3 33/3/3
f 35/1/3 34/1/3 33/1/3
f 36/1/3 34/1/3 35/1/3
f 39/3/3 38/3/3 37/3/3
f 40/3/3 38/3/3 39/3/3
f 41/1/3 40/1/3 39/1/3
f 42/1/3 40/1/3 41/1/3
f 45/3/3 44/3/3 43/3/3
f 46/3/3 44/3/3 45/3/3
f 47/2/3 46/2/3 45/2/3
f 48/2/3 46/2/3 47/2/3
f 49/3/4 50/3/4 51/3/4
f 51/3/4 50/3/4 52/3/4
f 51/1/4 52/1/4 53/1/4
f 53/1/4 52/1/4 54/1/4
f 55/3/4 56/3/4 57/3/4
f 57/3/4 56/3/4 58/3/4
f 57/2/4 58/2/4 59/2/4
f 59/2/4 58/2/4 60/2/4
f 61/3/4 62/3/4 63/3/4
f 63/3/4 62/3/4 64/3/4
f 63/2/4 64/2/4 65/2/4
f 65/2/4 64/2/4 66/2/4
f 70/3/5 68/3/5 67/3/5
f 70/1/5 69/1/5 68/1/5
f 71/1/5 69/1/5 70/1/5
f 72/3/5 70/3/5 67/3/5
f 72/2/5 71/2/5 70/2/5
f 73/2/5 71/2/5 72/2/5
f 74/3/5 72/3/5 67/3/5
f 74/1/5 73/1/5 72/1/5
f 75/1/5 73/1/5 74/1/5
f 76/3/5 74/3/5 67/3/5
f 76/2/5 75/2/5 74/2/5
f 77/2/5 75/2/5 76/2/5
f 78/3/5 76/3/5 67/3/5
f 78/1/5 77/1/5 76/1/5
f 79/1/5 77/1/5 78/1/5
f 80/3/5 78/3/5 67/3/5
f 81/2/5 79/2/5 78/2/5
f 81/3/5 78/3/5 80/3/5
f 82/2/5 79/2/5 81/2/5
f 83/3/6 84/3/6 86/3/6
f 84/1/6 85/1/6 86/1/6
f 86/1/6 85/1/6 87/1/6
f 83/3/6 86/3/6 88/3/6
f 86/2/6 87/2/6 89/2/6
f 88/3/6 86/3/6 89/3/6
f 89/2/6 87/2/6 90/2/6
f 91/3/6 92/3/6 94/3/6
f 92/2/6 93/2/6 95/2/6
f 94/3/6 92/3/6 95/3/6
f 95/2/6 93/2/6 96/2/6
f 97/3/6 98/3/6 100/3/6
f 98/1/6 99/1/6 101/1/6
f 100/3/6 98/3/6 101/3/6
f 101/1/6 99/1/6 102/1/6
f 103/3/6 104/3/6 106/3/6
f 104/1/6 105/1/6 107/1/6
f 106/3/6 104/3/6 107/3/6
f 107/1/6 105/1/6 108/1/6
f 109/3/6 110/3/6 112/3/6
f 110/2/6 111/2/6 113/2/6
f 112/3/6 110/3/6 113/3/6
f 113/2/6 111/2/6 114/2/6
