# MagicaVoxel @ Ephtracy

# group
o 

# material
mtllib Road Slope Short.mtl
usemtl palette

# normals
vn -1 0 0
vn 1 0 0
vn 0 0 1
vn 0 0 -1
vn 0 -1 0
vn 0 1 0

# texcoords
vt 0.958984 0.5
vt 0.978516 0.5

# verts
v -0.3 0 0.3
v -0.3 0 -0.3
v -0.3 0.1 0.3
v -0.3 0.1 0.1
v -0.3 0.2 0.1
v -0.3 0.2 -0.1
v -0.3 0.3 -0.1
v -0.3 0.3 -0.3
v 0.3 0 0.3
v 0.3 0 -0.3
v 0.3 0.1 0.3
v 0.3 0.1 0.1
v 0.3 0.2 0.1
v 0.3 0.2 -0.1
v 0.3 0.3 -0.1
v 0.3 0.3 -0.3
v -0.3 0 0.3
v -0.3 0.1 0.3
v -0.2 0 0.3
v -0.2 0.1 0.3
v 0.2 0 0.3
v 0.2 0.1 0.3
v 0.3 0 0.3
v 0.3 0.1 0.3
v -0.3 0.1 0.1
v -0.3 0.2 0.1
v -0.2 0.1 0.1
v -0.2 0.2 0.1
v 0.2 0.1 0.1
v 0.2 0.2 0.1
v 0.3 0.1 0.1
v 0.3 0.2 0.1
v -0.3 0.2 -0.1
v -0.3 0.3 -0.1
v -0.2 0.2 -0.1
v -0.2 0.3 -0.1
v 0.2 0.2 -0.1
v 0.2 0.3 -0.1
v 0.3 0.2 -0.1
v 0.3 0.3 -0.1
v -0.3 0 -0.3
v -0.3 0.3 -0.3
v -0.2 0 -0.3
v -0.2 0.3 -0.3
v 0.2 0 -0.3
v 0.2 0.3 -0.3
v 0.3 0 -0.3
v 0.3 0.3 -0.3
v -0.3 0 0.3
v -0.2 0 0.3
v 0.2 0 0.3
v 0.3 0 0.3
v -0.3 0 -0.3
v -0.2 0 -0.3
v 0.2 0 -0.3
v 0.3 0 -0.3
v -0.3 0.1 0.3
v -0.2 0.1 0.3
v 0.2 0.1 0.3
v 0.3 0.1 0.3
v -0.3 0.1 0.1
v -0.2 0.1 0.1
v 0.2 0.1 0.1
v 0.3 0.1 0.1
v -0.3 0.2 0.1
v -0.2 0.2 0.1
v 0.2 0.2 0.1
v 0.3 0.2 0.1
v -0.3 0.2 -0.1
v -0.2 0.2 -0.1
v 0.2 0.2 -0.1
v 0.3 0.2 -0.1
v -0.3 0.3 -0.1
v -0.2 0.3 -0.1
v 0.2 0.3 -0.1
v 0.3 0.3 -0.1
v -0.3 0.3 -0.3
v -0.2 0.3 -0.3
v 0.2 0.3 -0.3
v 0.3 0.3 -0.3

# faces
f 3/1/1 2/1/1 1/1/1
f 4/1/1 2/1/1 3/1/1
f 5/1/1 2/1/1 4/1/1
f 6/1/1 2/1/1 5/1/1
f 7/1/1 2/1/1 6/1/1
f 8/1/1 2/1/1 7/1/1
f 9/1/2 10/1/2 11/1/2
f 11/1/2 10/1/2 12/1/2
f 12/1/2 10/1/2 13/1/2
f 13/1/2 10/1/2 14/1/2
f 14/1/2 10/1/2 15/1/2
f 15/1/2 10/1/2 16/1/2
f 19/1/3 18/1/3 17/1/3
f 20/1/3 18/1/3 19/1/3
f 21/2/3 20/2/3 19/2/3
f 22/2/3 20/2/3 21/2/3
f 23/1/3 22/1/3 21/1/3
f 24/1/3 22/1/3 23/1/3
f 27/1/3 26/1/3 25/1/3
f 28/1/3 26/1/3 27/1/3
f 29/2/3 28/2/3 27/2/3
f 30/2/3 28/2/3 29/2/3
f 31/1/3 30/1/3 29/1/3
f 32/1/3 30/1/3 31/1/3
f 35/1/3 34/1/3 33/1/3
f 36/1/3 34/1/3 35/1/3
f 37/2/3 36/2/3 35/2/3
f 38/2/3 36/2/3 37/2/3
f 39/1/3 38/1/3 37/1/3
f 40/1/3 38/1/3 39/1/3
f 41/1/4 42/1/4 43/1/4
f 43/1/4 42/1/4 44/1/4
f 43/2/4 44/2/4 45/2/4
f 45/2/4 44/2/4 46/2/4
f 45/1/4 46/1/4 47/1/4
f 47/1/4 46/1/4 48/1/4
f 53/1/5 50/1/5 49/1/5
f 54/2/5 51/2/5 50/2/5
f 54/1/5 50/1/5 53/1/5
f 55/1/5 52/1/5 51/1/5
f 55/2/5 51/2/5 54/2/5
f 56/1/5 52/1/5 55/1/5
f 57/1/6 58/1/6 61/1/6
f 58/2/6 59/2/6 62/2/6
f 61/1/6 58/1/6 62/1/6
f 59/1/6 60/1/6 63/1/6
f 62/2/6 59/2/6 63/2/6
f 63/1/6 60/1/6 64/1/6
f 65/1/6 66/1/6 69/1/6
f 66/2/6 67/2/6 70/2/6
f 69/1/6 66/1/6 70/1/6
f 67/1/6 68/1/6 71/1/6
f 70/2/6 67/2/6 71/2/6
f 71/1/6 68/1/6 72/1/6
f 73/1/6 74/1/6 77/1/6
f 74/2/6 75/2/6 78/2/6
f 77/1/6 74/1/6 78/1/6
f 75/1/6 76/1/6 79/1/6
f 78/2/6 75/2/6 79/2/6
f 79/1/6 76/1/6 80/1/6
