# MagicaVoxel @ Ephtracy

# group
o 

# material
mtllib SideBlockB.mtl
usemtl palette

# normals
vn -1 0 0
vn 1 0 0
vn 0 0 1
vn 0 0 -1
vn 0 -1 0
vn 0 1 0

# texcoords
vt 0.958984 0.5
vt 0.966797 0.5
vt 0.978516 0.5
vt 0.994141 0.5

# verts
v -0.3 0 -0.2
v -0.3 0 -0.3
v -0.3 0.3 -0.2
v -0.3 0.3 -0.3
v -0.2 0 -0.1
v -0.2 0 -0.2
v -0.2 0.3 -0.1
v -0.2 0.3 -0.2
v -0.1 0 0
v -0.1 0 -0.1
v -0.1 0.3 0
v -0.1 0.3 -0.1
v 0 0 0.1
v 0 0 0
v 0 0.3 0.1
v 0 0.3 0
v 0.1 0 0.2
v 0.1 0 0.1
v 0.1 0.3 0.2
v 0.1 0.3 0.1
v 0.2 0 0.3
v 0.2 0 0.2
v 0.2 0.3 0.3
v 0.2 0.3 0.2
v 0.3 0 0.3
v 0.3 0 0.2
v 0.3 0 -0.3
v 0.3 0.3 0.3
v 0.3 0.3 0.2
v 0.3 0.3 -0.3
v 0.2 0 0.3
v 0.2 0.3 0.3
v 0.3 0 0.3
v 0.3 0.3 0.3
v 0.1 0 0.2
v 0.1 0.3 0.2
v 0.2 0 0.2
v 0.2 0.3 0.2
v 0 0 0.1
v 0 0.3 0.1
v 0.1 0 0.1
v 0.1 0.3 0.1
v -0.1 0 0
v -0.1 0.3 0
v 0 0 0
v 0 0.3 0
v -0.2 0 -0.1
v -0.2 0.3 -0.1
v -0.1 0 -0.1
v -0.1 0.3 -0.1
v -0.3 0 -0.2
v -0.3 0.3 -0.2
v -0.2 0 -0.2
v -0.2 0.3 -0.2
v -0.3 0 -0.3
v -0.3 0.3 -0.3
v -0.2 0 -0.3
v -0.2 0.3 -0.3
v -0.1 0 -0.3
v -0.1 0.3 -0.3
v 0 0 -0.3
v 0 0.3 -0.3
v 0.1 0 -0.3
v 0.1 0.3 -0.3
v 0.2 0 -0.3
v 0.2 0.3 -0.3
v 0.3 0 -0.3
v 0.3 0.3 -0.3
v 0.2 0 0.3
v 0.3 0 0.3
v 0.1 0 0.2
v 0.2 0 0.2
v 0.3 0 0.2
v 0 0 0.1
v 0.1 0 0.1
v 0.2 0 0.1
v -0.1 0 0
v 0 0 0
v 0.1 0 0
v -0.2 0 -0.1
v -0.1 0 -0.1
v 0 0 -0.1
v 0.1 0 -0.1
v -0.3 0 -0.2
v -0.2 0 -0.2
v -0.1 0 -0.2
v 0 0 -0.2
v 0.1 0 -0.2
v 0.2 0 -0.2
v -0.3 0 -0.3
v -0.2 0 -0.3
v -0.1 0 -0.3
v 0 0 -0.3
v 0.1 0 -0.3
v 0.2 0 -0.3
v 0.3 0 -0.3
v 0.2 0.3 0.3
v 0.3 0.3 0.3
v 0.1 0.3 0.2
v 0.2 0.3 0.2
v 0.3 0.3 0.2
v 0 0.3 0.1
v 0.1 0.3 0.1
v 0.2 0.3 0.1
v -0.1 0.3 0
v 0 0.3 0
v 0.1 0.3 0
v -0.2 0.3 -0.1
v -0.1 0.3 -0.1
v 0 0.3 -0.1
v 0.1 0.3 -0.1
v -0.3 0.3 -0.2
v -0.2 0.3 -0.2
v -0.1 0.3 -0.2
v 0 0.3 -0.2
v 0.1 0.3 -0.2
v 0.2 0.3 -0.2
v -0.3 0.3 -0.3
v -0.2 0.3 -0.3
v -0.1 0.3 -0.3
v 0 0.3 -0.3
v 0.1 0.3 -0.3
v 0.2 0.3 -0.3
v 0.3 0.3 -0.3

# faces
f 3/2/1 2/2/1 1/2/1
f 4/2/1 2/2/1 3/2/1
f 7/2/1 6/2/1 5/2/1
f 8/2/1 6/2/1 7/2/1
f 11/1/1 10/1/1 9/1/1
f 12/1/1 10/1/1 11/1/1
f 15/1/1 14/1/1 13/1/1
f 16/1/1 14/1/1 15/1/1
f 19/2/1 18/2/1 17/2/1
f 20/2/1 18/2/1 19/2/1
f 23/2/1 22/2/1 21/2/1
f 24/2/1 22/2/1 23/2/1
f 25/2/2 26/2/2 28/2/2
f 26/1/2 27/1/2 29/1/2
f 28/2/2 26/2/2 29/2/2
f 29/1/2 27/1/2 30/1/2
f 33/2/3 32/2/3 31/2/3
f 34/2/3 32/2/3 33/2/3
f 37/2/3 36/2/3 35/2/3
f 38/2/3 36/2/3 37/2/3
f 41/1/3 40/1/3 39/1/3
f 42/1/3 40/1/3 41/1/3
f 45/1/3 44/1/3 43/1/3
f 46/1/3 44/1/3 45/1/3
f 49/2/3 48/2/3 47/2/3
f 50/2/3 48/2/3 49/2/3
f 53/2/3 52/2/3 51/2/3
f 54/2/3 52/2/3 53/2/3
f 55/2/4 56/2/4 57/2/4
f 57/2/4 56/2/4 58/2/4
f 57/1/4 58/1/4 59/1/4
f 59/1/4 58/1/4 60/1/4
f 59/2/4 60/2/4 61/2/4
f 61/2/4 60/2/4 62/2/4
f 61/1/4 62/1/4 63/1/4
f 63/1/4 62/1/4 64/1/4
f 63/2/4 64/2/4 65/2/4
f 65/2/4 64/2/4 66/2/4
f 65/1/4 66/1/4 67/1/4
f 67/1/4 66/1/4 68/1/4
f 72/2/5 70/2/5 69/2/5
f 73/2/5 70/2/5 72/2/5
f 75/2/5 72/2/5 71/2/5
f 76/1/5 73/1/5 72/1/5
f 76/2/5 72/2/5 75/2/5
f 78/1/5 75/1/5 74/1/5
f 78/1/5 76/1/5 75/1/5
f 79/1/5 76/1/5 78/1/5
f 81/1/5 78/1/5 77/1/5
f 82/4/5 79/4/5 78/4/5
f 82/1/5 78/1/5 81/1/5
f 83/1/5 76/1/5 79/1/5
f 83/4/5 79/4/5 82/4/5
f 85/2/5 81/2/5 80/2/5
f 86/1/5 82/1/5 81/1/5
f 86/1/5 83/1/5 82/1/5
f 86/2/5 81/2/5 85/2/5
f 87/1/5 83/1/5 86/1/5
f 88/1/5 76/1/5 83/1/5
f 88/1/5 83/1/5 87/1/5
f 89/1/5 73/1/5 76/1/5
f 89/1/5 76/1/5 88/1/5
f 90/2/5 85/2/5 84/2/5
f 91/1/5 86/1/5 85/1/5
f 91/2/5 85/2/5 90/2/5
f 92/2/5 87/2/5 86/2/5
f 92/1/5 86/1/5 91/1/5
f 93/1/5 88/1/5 87/1/5
f 93/2/5 87/2/5 92/2/5
f 94/2/5 89/2/5 88/2/5
f 94/1/5 88/1/5 93/1/5
f 95/1/5 73/1/5 89/1/5
f 95/2/5 89/2/5 94/2/5
f 96/1/5 73/1/5 95/1/5
f 97/2/6 98/2/6 100/2/6
f 100/2/6 98/2/6 101/2/6
f 99/2/6 100/2/6 103/2/6
f 100/1/6 101/1/6 104/1/6
f 103/2/6 100/2/6 104/2/6
f 102/1/6 103/1/6 106/1/6
f 103/1/6 104/1/6 106/1/6
f 106/1/6 104/1/6 107/1/6
f 105/1/6 106/1/6 109/1/6
f 106/4/6 107/4/6 110/4/6
f 109/1/6 106/1/6 110/1/6
f 107/1/6 104/1/6 111/1/6
f 110/4/6 107/4/6 111/4/6
f 108/2/6 109/2/6 113/2/6
f 109/1/6 110/1/6 114/1/6
f 110/1/6 111/1/6 114/1/6
f 113/2/6 109/2/6 114/2/6
f 114/1/6 111/1/6 115/1/6
f 111/1/6 104/1/6 116/1/6
f 115/1/6 111/1/6 116/1/6
f 104/1/6 101/1/6 117/1/6
f 116/1/6 104/1/6 117/1/6
f 112/2/6 113/2/6 118/2/6
f 113/1/6 114/1/6 119/1/6
f 118/2/6 113/2/6 119/2/6
f 114/2/6 115/2/6 120/2/6
f 119/1/6 114/1/6 120/1/6
f 115/1/6 116/1/6 121/1/6
f 120/2/6 115/2/6 121/2/6
f 116/2/6 117/2/6 122/2/6
f 121/1/6 116/1/6 122/1/6
f 117/1/6 101/1/6 123/1/6
f 122/2/6 117/2/6 123/2/6
f 123/1/6 101/1/6 124/1/6
