# MagicaVoxel @ Ephtracy

# group
o 

# material
mtllib CornerBlockC.mtl
usemtl palette

# normals
vn -1 0 0
vn 1 0 0
vn 0 0 1
vn 0 0 -1
vn 0 -1 0
vn 0 1 0

# texcoords
vt 0.958984 0.5
vt 0.966797 0.5
vt 0.978516 0.5

# verts
v -0.3 0 0.3
v -0.3 0 0.2
v -0.3 0 0.1
v -0.3 0 0
v -0.3 0 -0.1
v -0.3 0 -0.2
v -0.3 0 -0.3
v -0.3 0.1 -0.1
v -0.3 0.1 -0.2
v -0.3 0.1 -0.3
v -0.3 0.2 0.1
v -0.3 0.2 0
v -0.3 0.2 -0.1
v -0.3 0.3 0.3
v -0.3 0.3 0.2
v -0.3 0.3 0.1
v -0.1 0.1 -0.1
v -0.1 0.1 -0.3
v -0.1 0.2 -0.1
v -0.1 0.2 -0.3
v 0.1 0.2 0.1
v 0.1 0.2 -0.3
v 0.1 0.3 0.1
v 0.1 0.3 -0.3
v 0.3 0 0.3
v 0.3 0 -0.3
v 0.3 0.3 0.3
v 0.3 0.3 -0.3
v -0.3 0 0.3
v -0.3 0.3 0.3
v -0.2 0 0.3
v -0.2 0.3 0.3
v 0.3 0 0.3
v 0.3 0.3 0.3
v -0.3 0.2 0.1
v -0.3 0.3 0.1
v -0.2 0.2 0.1
v -0.2 0.3 0.1
v 0.1 0.2 0.1
v 0.1 0.3 0.1
v -0.3 0.1 -0.1
v -0.3 0.2 -0.1
v -0.2 0.1 -0.1
v -0.2 0.2 -0.1
v -0.1 0.1 -0.1
v -0.1 0.2 -0.1
v -0.3 0 -0.3
v -0.3 0.1 -0.3
v -0.1 0.1 -0.3
v -0.1 0.2 -0.3
v 0.1 0.2 -0.3
v 0.1 0.3 -0.3
v 0.3 0 -0.3
v 0.3 0.3 -0.3
v -0.3 0 0.3
v -0.2 0 0.3
v 0.3 0 0.3
v -0.3 0 0.2
v -0.2 0 0.2
v -0.3 0 0.1
v -0.2 0 0.1
v -0.3 0 0
v -0.2 0 0
v -0.3 0 -0.1
v -0.2 0 -0.1
v -0.3 0 -0.2
v -0.2 0 -0.2
v -0.3 0 -0.3
v 0.3 0 -0.3
v -0.3 0.1 -0.1
v -0.2 0.1 -0.1
v -0.1 0.1 -0.1
v -0.3 0.1 -0.2
v -0.2 0.1 -0.2
v -0.3 0.1 -0.3
v -0.1 0.1 -0.3
v -0.3 0.2 0.1
v -0.2 0.2 0.1
v 0.1 0.2 0.1
v -0.3 0.2 0
v -0.2 0.2 0
v -0.3 0.2 -0.1
v -0.2 0.2 -0.1
v -0.1 0.2 -0.1
v -0.1 0.2 -0.3
v 0.1 0.2 -0.3
v -0.3 0.3 0.3
v -0.2 0.3 0.3
v 0.3 0.3 0.3
v -0.3 0.3 0.2
v -0.2 0.3 0.2
v -0.3 0.3 0.1
v -0.2 0.3 0.1
v 0.1 0.3 0.1
v 0.1 0.3 -0.3
v 0.3 0.3 -0.3

# faces
f 8/1/1 5/1/1 4/1/1
f 8/2/1 6/2/1 5/2/1
f 9/3/1 7/3/1 6/3/1
f 9/2/1 6/2/1 8/2/1
f 10/3/1 7/3/1 9/3/1
f 11/1/1 3/1/1 2/1/1
f 11/2/1 4/2/1 3/2/1
f 12/1/1 8/1/1 4/1/1
f 12/2/1 4/2/1 11/2/1
f 13/1/1 8/1/1 12/1/1
f 14/2/1 2/2/1 1/2/1
f 15/1/1 11/1/1 2/1/1
f 15/2/1 2/2/1 14/2/1
f 16/1/1 11/1/1 15/1/1
f 19/3/1 18/3/1 17/3/1
f 20/3/1 18/3/1 19/3/1
f 23/3/1 22/3/1 21/3/1
f 24/3/1 22/3/1 23/3/1
f 25/3/2 26/3/2 27/3/2
f 27/3/2 26/3/2 28/3/2
f 31/2/3 30/2/3 29/2/3
f 32/2/3 30/2/3 31/2/3
f 33/3/3 32/3/3 31/3/3
f 34/3/3 32/3/3 33/3/3
f 35/1/4 36/1/4 37/1/4
f 37/1/4 36/1/4 38/1/4
f 37/3/4 38/3/4 39/3/4
f 39/3/4 38/3/4 40/3/4
f 41/1/4 42/1/4 43/1/4
f 43/1/4 42/1/4 44/1/4
f 43/3/4 44/3/4 45/3/4
f 45/3/4 44/3/4 46/3/4
f 47/3/4 48/3/4 49/3/4
f 49/3/4 50/3/4 51/3/4
f 47/3/4 49/3/4 53/3/4
f 51/3/4 52/3/4 53/3/4
f 49/3/4 51/3/4 53/3/4
f 53/3/4 52/3/4 54/3/4
f 58/2/5 56/2/5 55/2/5
f 59/3/5 57/3/5 56/3/5
f 59/2/5 56/2/5 58/2/5
f 60/1/5 59/1/5 58/1/5
f 61/3/5 57/3/5 59/3/5
f 61/1/5 59/1/5 60/1/5
f 62/2/5 61/2/5 60/2/5
f 63/3/5 57/3/5 61/3/5
f 63/2/5 61/2/5 62/2/5
f 64/1/5 63/1/5 62/1/5
f 65/3/5 57/3/5 63/3/5
f 65/1/5 63/1/5 64/1/5
f 66/2/5 65/2/5 64/2/5
f 67/3/5 57/3/5 65/3/5
f 67/2/5 65/2/5 66/2/5
f 68/3/5 67/3/5 66/3/5
f 69/3/5 57/3/5 67/3/5
f 69/3/5 67/3/5 68/3/5
f 70/2/6 71/2/6 73/2/6
f 71/3/6 72/3/6 74/3/6
f 73/2/6 71/2/6 74/2/6
f 73/3/6 74/3/6 75/3/6
f 74/3/6 72/3/6 76/3/6
f 75/3/6 74/3/6 76/3/6
f 77/2/6 78/2/6 80/2/6
f 78/3/6 79/3/6 81/3/6
f 80/2/6 78/2/6 81/2/6
f 80/1/6 81/1/6 82/1/6
f 81/3/6 79/3/6 83/3/6
f 82/1/6 81/1/6 83/1/6
f 83/3/6 79/3/6 84/3/6
f 84/3/6 79/3/6 85/3/6
f 85/3/6 79/3/6 86/3/6
f 87/2/6 88/2/6 90/2/6
f 88/3/6 89/3/6 91/3/6
f 90/2/6 88/2/6 91/2/6
f 90/1/6 91/1/6 92/1/6
f 91/3/6 89/3/6 93/3/6
f 92/1/6 91/1/6 93/1/6
f 93/3/6 89/3/6 94/3/6
f 94/3/6 89/3/6 95/3/6
f 95/3/6 89/3/6 96/3/6
