# MagicaVoxel @ Ephtracy

# group
o 

# material
mtllib CornerBlockA.mtl
usemtl palette

# normals
vn -1 0 0
vn 1 0 0
vn 0 0 1
vn 0 0 -1
vn 0 -1 0
vn 0 1 0

# texcoords
vt 0.958984 0.5
vt 0.966797 0.5
vt 0.978516 0.5

# verts
v -0.3 0 0.3
v -0.3 0 0.2
v -0.3 0 0.1
v -0.3 0 0
v -0.3 0 -0.1
v -0.3 0 -0.2
v -0.3 0 -0.3
v -0.3 0.1 -0.1
v -0.3 0.1 -0.2
v -0.3 0.1 -0.3
v -0.3 0.2 0.1
v -0.3 0.2 0
v -0.3 0.2 -0.1
v -0.3 0.3 0.3
v -0.3 0.3 0.2
v -0.3 0.3 0.1
v -0.1 0.1 -0.1
v -0.1 0.1 -0.2
v -0.1 0.1 -0.3
v -0.1 0.2 -0.1
v -0.1 0.2 -0.2
v -0.1 0.2 -0.3
v 0.1 0.2 0.1
v 0.1 0.2 -0.2
v 0.1 0.2 -0.3
v 0.1 0.3 0.1
v 0.1 0.3 -0.2
v 0.1 0.3 -0.3
v 0.3 0 0.3
v 0.3 0 -0.2
v 0.3 0 -0.3
v 0.3 0.3 0.3
v 0.3 0.3 -0.2
v 0.3 0.3 -0.3
v -0.3 0 0.3
v -0.3 0.3 0.3
v -0.2 0 0.3
v -0.2 0.3 0.3
v 0.3 0 0.3
v 0.3 0.3 0.3
v -0.3 0.2 0.1
v -0.3 0.3 0.1
v -0.2 0.2 0.1
v -0.2 0.3 0.1
v 0.1 0.2 0.1
v 0.1 0.3 0.1
v -0.3 0.1 -0.1
v -0.3 0.2 -0.1
v -0.2 0.1 -0.1
v -0.2 0.2 -0.1
v -0.1 0.1 -0.1
v -0.1 0.2 -0.1
v -0.3 0 -0.3
v -0.3 0.1 -0.3
v -0.2 0 -0.3
v -0.2 0.1 -0.3
v -0.1 0 -0.3
v -0.1 0.1 -0.3
v -0.1 0.2 -0.3
v 0 0 -0.3
v 0 0.2 -0.3
v 0.1 0 -0.3
v 0.1 0.2 -0.3
v 0.1 0.3 -0.3
v 0.2 0 -0.3
v 0.2 0.3 -0.3
v 0.3 0 -0.3
v 0.3 0.3 -0.3
v -0.3 0 0.3
v -0.2 0 0.3
v 0.3 0 0.3
v -0.3 0 0.2
v -0.2 0 0.2
v -0.3 0 0.1
v -0.2 0 0.1
v -0.3 0 0
v -0.2 0 0
v -0.3 0 -0.1
v -0.2 0 -0.1
v -0.3 0 -0.2
v -0.2 0 -0.2
v -0.1 0 -0.2
v 0 0 -0.2
v 0.1 0 -0.2
v 0.2 0 -0.2
v 0.3 0 -0.2
v -0.3 0 -0.3
v -0.2 0 -0.3
v -0.1 0 -0.3
v 0 0 -0.3
v 0.1 0 -0.3
v 0.2 0 -0.3
v 0.3 0 -0.3
v -0.3 0.1 -0.1
v -0.2 0.1 -0.1
v -0.1 0.1 -0.1
v -0.3 0.1 -0.2
v -0.2 0.1 -0.2
v -0.1 0.1 -0.2
v -0.3 0.1 -0.3
v -0.2 0.1 -0.3
v -0.1 0.1 -0.3
v -0.3 0.2 0.1
v -0.2 0.2 0.1
v 0.1 0.2 0.1
v -0.3 0.2 0
v -0.2 0.2 0
v -0.3 0.2 -0.1
v -0.2 0.2 -0.1
v -0.1 0.2 -0.1
v -0.1 0.2 -0.2
v 0 0.2 -0.2
v 0.1 0.2 -0.2
v -0.1 0.2 -0.3
v 0 0.2 -0.3
v 0.1 0.2 -0.3
v -0.3 0.3 0.3
v -0.2 0.3 0.3
v 0.3 0.3 0.3
v -0.3 0.3 0.2
v -0.2 0.3 0.2
v -0.3 0.3 0.1
v -0.2 0.3 0.1
v 0.1 0.3 0.1
v 0.1 0.3 -0.2
v 0.2 0.3 -0.2
v 0.3 0.3 -0.2
v 0.1 0.3 -0.3
v 0.2 0.3 -0.3
v 0.3 0.3 -0.3

# faces
f 8/1/1 5/1/1 4/1/1
f 8/2/1 6/2/1 5/2/1
f 9/1/1 7/1/1 6/1/1
f 9/2/1 6/2/1 8/2/1
f 10/1/1 7/1/1 9/1/1
f 11/1/1 3/1/1 2/1/1
f 11/2/1 4/2/1 3/2/1
f 12/1/1 8/1/1 4/1/1
f 12/2/1 4/2/1 11/2/1
f 13/1/1 8/1/1 12/1/1
f 14/2/1 2/2/1 1/2/1
f 15/1/1 11/1/1 2/1/1
f 15/2/1 2/2/1 14/2/1
f 16/1/1 11/1/1 15/1/1
f 20/3/1 18/3/1 17/3/1
f 21/1/1 19/1/1 18/1/1
f 21/3/1 18/3/1 20/3/1
f 22/1/1 19/1/1 21/1/1
f 26/3/1 24/3/1 23/3/1
f 27/1/1 25/1/1 24/1/1
f 27/3/1 24/3/1 26/3/1
f 28/1/1 25/1/1 27/1/1
f 29/3/2 30/3/2 32/3/2
f 30/2/2 31/2/2 33/2/2
f 32/3/2 30/3/2 33/3/2
f 33/2/2 31/2/2 34/2/2
f 37/2/3 36/2/3 35/2/3
f 38/2/3 36/2/3 37/2/3
f 39/3/3 38/3/3 37/3/3
f 40/3/3 38/3/3 39/3/3
f 41/1/4 42/1/4 43/1/4
f 43/1/4 42/1/4 44/1/4
f 43/3/4 44/3/4 45/3/4
f 45/3/4 44/3/4 46/3/4
f 47/1/4 48/1/4 49/1/4
f 49/1/4 48/1/4 50/1/4
f 49/3/4 50/3/4 51/3/4
f 51/3/4 50/3/4 52/3/4
f 53/1/4 54/1/4 55/1/4
f 55/1/4 54/1/4 56/1/4
f 55/2/4 56/2/4 57/2/4
f 57/2/4 56/2/4 58/2/4
f 57/1/4 58/1/4 60/1/4
f 58/1/4 59/1/4 60/1/4
f 60/1/4 59/1/4 61/1/4
f 60/2/4 61/2/4 62/2/4
f 62/2/4 61/2/4 63/2/4
f 62/1/4 63/1/4 65/1/4
f 63/1/4 64/1/4 65/1/4
f 65/1/4 64/1/4 66/1/4
f 65/2/4 66/2/4 67/2/4
f 67/2/4 66/2/4 68/2/4
f 72/2/5 70/2/5 69/2/5
f 73/3/5 71/3/5 70/3/5
f 73/2/5 70/2/5 72/2/5
f 74/1/5 73/1/5 72/1/5
f 75/3/5 71/3/5 73/3/5
f 75/1/5 73/1/5 74/1/5
f 76/2/5 75/2/5 74/2/5
f 77/3/5 71/3/5 75/3/5
f 77/2/5 75/2/5 76/2/5
f 78/1/5 77/1/5 76/1/5
f 79/3/5 71/3/5 77/3/5
f 79/1/5 77/1/5 78/1/5
f 80/2/5 79/2/5 78/2/5
f 81/3/5 71/3/5 79/3/5
f 81/2/5 79/2/5 80/2/5
f 82/3/5 71/3/5 81/3/5
f 83/3/5 71/3/5 82/3/5
f 84/3/5 71/3/5 83/3/5
f 85/3/5 71/3/5 84/3/5
f 86/3/5 71/3/5 85/3/5
f 87/1/5 81/1/5 80/1/5
f 88/2/5 82/2/5 81/2/5
f 88/1/5 81/1/5 87/1/5
f 89/1/5 83/1/5 82/1/5
f 89/2/5 82/2/5 88/2/5
f 90/2/5 84/2/5 83/2/5
f 90/1/5 83/1/5 89/1/5
f 91/1/5 85/1/5 84/1/5
f 91/2/5 84/2/5 90/2/5
f 92/2/5 86/2/5 85/2/5
f 92/1/5 85/1/5 91/1/5
f 93/2/5 86/2/5 92/2/5
f 94/2/6 95/2/6 97/2/6
f 95/3/6 96/3/6 98/3/6
f 97/2/6 95/2/6 98/2/6
f 98/3/6 96/3/6 99/3/6
f 97/1/6 98/1/6 100/1/6
f 98/2/6 99/2/6 101/2/6
f 100/1/6 98/1/6 101/1/6
f 101/2/6 99/2/6 102/2/6
f 103/2/6 104/2/6 106/2/6
f 104/3/6 105/3/6 107/3/6
f 106/2/6 104/2/6 107/2/6
f 106/1/6 107/1/6 108/1/6
f 107/3/6 105/3/6 109/3/6
f 108/1/6 107/1/6 109/1/6
f 109/3/6 105/3/6 110/3/6
f 110/3/6 105/3/6 111/3/6
f 111/3/6 105/3/6 112/3/6
f 112/3/6 105/3/6 113/3/6
f 111/1/6 112/1/6 114/1/6
f 112/2/6 113/2/6 115/2/6
f 114/1/6 112/1/6 115/1/6
f 115/2/6 113/2/6 116/2/6
f 117/2/6 118/2/6 120/2/6
f 118/3/6 119/3/6 121/3/6
f 120/2/6 118/2/6 121/2/6
f 120/1/6 121/1/6 122/1/6
f 121/3/6 119/3/6 123/3/6
f 122/1/6 121/1/6 123/1/6
f 123/3/6 119/3/6 124/3/6
f 124/3/6 119/3/6 125/3/6
f 125/3/6 119/3/6 126/3/6
f 126/3/6 119/3/6 127/3/6
f 125/1/6 126/1/6 128/1/6
f 126/2/6 127/2/6 129/2/6
f 128/1/6 126/1/6 129/1/6
f 129/2/6 127/2/6 130/2/6
