# MagicaVoxel @ Ephtracy

# group
o 

# material
mtllib CornerBlockB.mtl
usemtl palette

# normals
vn -1 0 0
vn 1 0 0
vn 0 0 1
vn 0 0 -1
vn 0 -1 0
vn 0 1 0

# texcoords
vt 0.958984 0.5
vt 0.966797 0.5
vt 0.978516 0.5

# verts
v -0.3 0 0.3
v -0.3 0 -0.2
v -0.3 0 -0.3
v -0.3 0.1 -0.1
v -0.3 0.1 -0.2
v -0.3 0.1 -0.3
v -0.3 0.2 0.1
v -0.3 0.2 -0.1
v -0.3 0.3 0.3
v -0.3 0.3 0.1
v -0.1 0.1 -0.1
v -0.1 0.1 -0.2
v -0.1 0.1 -0.3
v -0.1 0.2 -0.1
v -0.1 0.2 -0.2
v -0.1 0.2 -0.3
v 0.1 0.2 0.1
v 0.1 0.2 -0.2
v 0.1 0.2 -0.3
v 0.1 0.3 0.1
v 0.1 0.3 -0.2
v 0.1 0.3 -0.3
v 0.3 0 0.3
v 0.3 0 -0.2
v 0.3 0 -0.3
v 0.3 0.3 0.3
v 0.3 0.3 -0.2
v 0.3 0.3 -0.3
v -0.3 0 0.3
v -0.3 0.3 0.3
v 0.3 0 0.3
v 0.3 0.3 0.3
v -0.3 0.2 0.1
v -0.3 0.3 0.1
v 0.1 0.2 0.1
v 0.1 0.3 0.1
v -0.3 0.1 -0.1
v -0.3 0.2 -0.1
v -0.1 0.1 -0.1
v -0.1 0.2 -0.1
v -0.3 0 -0.3
v -0.3 0.1 -0.3
v -0.2 0 -0.3
v -0.2 0.1 -0.3
v -0.1 0 -0.3
v -0.1 0.1 -0.3
v -0.1 0.2 -0.3
v 0 0 -0.3
v 0 0.2 -0.3
v 0.1 0 -0.3
v 0.1 0.2 -0.3
v 0.1 0.3 -0.3
v 0.2 0 -0.3
v 0.2 0.3 -0.3
v 0.3 0 -0.3
v 0.3 0.3 -0.3
v -0.3 0 0.3
v 0.3 0 0.3
v -0.3 0 -0.2
v -0.2 0 -0.2
v -0.1 0 -0.2
v 0 0 -0.2
v 0.1 0 -0.2
v 0.2 0 -0.2
v 0.3 0 -0.2
v -0.3 0 -0.3
v -0.2 0 -0.3
v -0.1 0 -0.3
v 0 0 -0.3
v 0.1 0 -0.3
v 0.2 0 -0.3
v 0.3 0 -0.3
v -0.3 0.1 -0.1
v -0.1 0.1 -0.1
v -0.3 0.1 -0.2
v -0.2 0.1 -0.2
v -0.1 0.1 -0.2
v -0.3 0.1 -0.3
v -0.2 0.1 -0.3
v -0.1 0.1 -0.3
v -0.3 0.2 0.1
v 0.1 0.2 0.1
v -0.3 0.2 -0.1
v -0.1 0.2 -0.1
v -0.1 0.2 -0.2
v 0 0.2 -0.2
v 0.1 0.2 -0.2
v -0.1 0.2 -0.3
v 0 0.2 -0.3
v 0.1 0.2 -0.3
v -0.3 0.3 0.3
v 0.3 0.3 0.3
v -0.3 0.3 0.1
v 0.1 0.3 0.1
v 0.1 0.3 -0.2
v 0.2 0.3 -0.2
v 0.3 0.3 -0.2
v 0.1 0.3 -0.3
v 0.2 0.3 -0.3
v 0.3 0.3 -0.3

# faces
f 4/3/1 2/3/1 1/3/1
f 5/1/1 3/1/1 2/1/1
f 5/3/1 2/3/1 4/3/1
f 6/1/1 3/1/1 5/1/1
f 7/3/1 4/3/1 1/3/1
f 8/3/1 4/3/1 7/3/1
f 9/3/1 7/3/1 1/3/1
f 10/3/1 7/3/1 9/3/1
f 14/3/1 12/3/1 11/3/1
f 15/1/1 13/1/1 12/1/1
f 15/3/1 12/3/1 14/3/1
f 16/1/1 13/1/1 15/1/1
f 20/3/1 18/3/1 17/3/1
f 21/1/1 19/1/1 18/1/1
f 21/3/1 18/3/1 20/3/1
f 22/1/1 19/1/1 21/1/1
f 23/3/2 24/3/2 26/3/2
f 24/2/2 25/2/2 27/2/2
f 26/3/2 24/3/2 27/3/2
f 27/2/2 25/2/2 28/2/2
f 31/3/3 30/3/3 29/3/3
f 32/3/3 30/3/3 31/3/3
f 33/3/4 34/3/4 35/3/4
f 35/3/4 34/3/4 36/3/4
f 37/3/4 38/3/4 39/3/4
f 39/3/4 38/3/4 40/3/4
f 41/1/4 42/1/4 43/1/4
f 43/1/4 42/1/4 44/1/4
f 43/2/4 44/2/4 45/2/4
f 45/2/4 44/2/4 46/2/4
f 45/1/4 46/1/4 48/1/4
f 46/1/4 47/1/4 48/1/4
f 48/1/4 47/1/4 49/1/4
f 48/2/4 49/2/4 50/2/4
f 50/2/4 49/2/4 51/2/4
f 50/1/4 51/1/4 53/1/4
f 51/1/4 52/1/4 53/1/4
f 53/1/4 52/1/4 54/1/4
f 53/2/4 54/2/4 55/2/4
f 55/2/4 54/2/4 56/2/4
f 59/3/5 58/3/5 57/3/5
f 60/3/5 58/3/5 59/3/5
f 61/3/5 58/3/5 60/3/5
f 62/3/5 58/3/5 61/3/5
f 63/3/5 58/3/5 62/3/5
f 64/3/5 58/3/5 63/3/5
f 65/3/5 58/3/5 64/3/5
f 66/1/5 60/1/5 59/1/5
f 67/2/5 61/2/5 60/2/5
f 67/1/5 60/1/5 66/1/5
f 68/1/5 62/1/5 61/1/5
f 68/2/5 61/2/5 67/2/5
f 69/2/5 63/2/5 62/2/5
f 69/1/5 62/1/5 68/1/5
f 70/1/5 64/1/5 63/1/5
f 70/2/5 63/2/5 69/2/5
f 71/2/5 65/2/5 64/2/5
f 71/1/5 64/1/5 70/1/5
f 72/2/5 65/2/5 71/2/5
f 73/3/6 74/3/6 75/3/6
f 75/3/6 74/3/6 76/3/6
f 76/3/6 74/3/6 77/3/6
f 75/1/6 76/1/6 78/1/6
f 76/2/6 77/2/6 79/2/6
f 78/1/6 76/1/6 79/1/6
f 79/2/6 77/2/6 80/2/6
f 81/3/6 82/3/6 83/3/6
f 83/3/6 82/3/6 84/3/6
f 84/3/6 82/3/6 85/3/6
f 85/3/6 82/3/6 86/3/6
f 86/3/6 82/3/6 87/3/6
f 85/1/6 86/1/6 88/1/6
f 86/2/6 87/2/6 89/2/6
f 88/1/6 86/1/6 89/1/6
f 89/2/6 87/2/6 90/2/6
f 91/3/6 92/3/6 93/3/6
f 93/3/6 92/3/6 94/3/6
f 94/3/6 92/3/6 95/3/6
f 95/3/6 92/3/6 96/3/6
f 96/3/6 92/3/6 97/3/6
f 95/1/6 96/1/6 98/1/6
f 96/2/6 97/2/6 99/2/6
f 98/1/6 96/1/6 99/1/6
f 99/2/6 97/2/6 100/2/6
