# MagicaVoxel @ Ephtracy

# group
o 

# material
mtllib RoadBlockA.mtl
usemtl palette

# normals
vn -1 0 0
vn 1 0 0
vn 0 0 1
vn 0 0 -1
vn 0 -1 0
vn 0 1 0

# texcoords
vt 0.958984 0.5
vt 0.966797 0.5
vt 0.978516 0.5

# verts
v -0.3 0 0.3
v -0.3 0 0.2
v -0.3 0 0.1
v -0.3 0 0
v -0.3 0 -0.1
v -0.3 0 -0.2
v -0.3 0 -0.3
v -0.3 0.1 0.1
v -0.3 0.1 0
v -0.3 0.1 -0.1
v -0.3 0.2 0.2
v -0.3 0.2 0.1
v -0.3 0.2 -0.1
v -0.3 0.2 -0.2
v -0.3 0.3 0.3
v -0.3 0.3 0.2
v -0.3 0.3 -0.2
v -0.3 0.3 -0.3
v 0.3 0 0.3
v 0.3 0 0.2
v 0.3 0 0.1
v 0.3 0 0
v 0.3 0 -0.1
v 0.3 0 -0.2
v 0.3 0 -0.3
v 0.3 0.1 0.1
v 0.3 0.1 0
v 0.3 0.1 -0.1
v 0.3 0.2 0.2
v 0.3 0.2 0.1
v 0.3 0.2 -0.1
v 0.3 0.2 -0.2
v 0.3 0.3 0.3
v 0.3 0.3 0.2
v 0.3 0.3 -0.2
v 0.3 0.3 -0.3
v -0.3 0 0.3
v -0.3 0.3 0.3
v -0.2 0 0.3
v -0.2 0.3 0.3
v 0.2 0 0.3
v 0.2 0.3 0.3
v 0.3 0 0.3
v 0.3 0.3 0.3
v -0.3 0.1 -0.1
v -0.3 0.2 -0.1
v -0.2 0.1 -0.1
v -0.2 0.2 -0.1
v 0.2 0.1 -0.1
v 0.2 0.2 -0.1
v 0.3 0.1 -0.1
v 0.3 0.2 -0.1
v -0.3 0.2 -0.2
v -0.3 0.3 -0.2
v -0.2 0.2 -0.2
v -0.2 0.3 -0.2
v 0.2 0.2 -0.2
v 0.2 0.3 -0.2
v 0.3 0.2 -0.2
v 0.3 0.3 -0.2
v -0.3 0.2 0.2
v -0.3 0.3 0.2
v -0.2 0.2 0.2
v -0.2 0.3 0.2
v 0.2 0.2 0.2
v 0.2 0.3 0.2
v 0.3 0.2 0.2
v 0.3 0.3 0.2
v -0.3 0.1 0.1
v -0.3 0.2 0.1
v -0.2 0.1 0.1
v -0.2 0.2 0.1
v 0.2 0.1 0.1
v 0.2 0.2 0.1
v 0.3 0.1 0.1
v 0.3 0.2 0.1
v -0.3 0 -0.3
v -0.3 0.3 -0.3
v -0.2 0 -0.3
v -0.2 0.3 -0.3
v 0.2 0 -0.3
v 0.2 0.3 -0.3
v 0.3 0 -0.3
v 0.3 0.3 -0.3
v -0.3 0 0.3
v -0.2 0 0.3
v 0.2 0 0.3
v 0.3 0 0.3
v -0.3 0 0.2
v -0.2 0 0.2
v 0.2 0 0.2
v 0.3 0 0.2
v -0.3 0 0.1
v -0.2 0 0.1
v 0.2 0 0.1
v 0.3 0 0.1
v -0.3 0 0
v -0.2 0 0
v 0.2 0 0
v 0.3 0 0
v -0.3 0 -0.1
v -0.2 0 -0.1
v 0.2 0 -0.1
v 0.3 0 -0.1
v -0.3 0 -0.2
v -0.2 0 -0.2
v 0.2 0 -0.2
v 0.3 0 -0.2
v -0.3 0 -0.3
v -0.2 0 -0.3
v 0.2 0 -0.3
v 0.3 0 -0.3
v -0.3 0.1 0.1
v -0.2 0.1 0.1
v 0.2 0.1 0.1
v 0.3 0.1 0.1
v -0.3 0.1 0
v -0.2 0.1 0
v 0.2 0.1 0
v 0.3 0.1 0
v -0.3 0.1 -0.1
v -0.2 0.1 -0.1
v 0.2 0.1 -0.1
v 0.3 0.1 -0.1
v -0.3 0.2 0.2
v -0.2 0.2 0.2
v 0.2 0.2 0.2
v 0.3 0.2 0.2
v -0.3 0.2 0.1
v -0.2 0.2 0.1
v 0.2 0.2 0.1
v 0.3 0.2 0.1
v -0.3 0.2 -0.1
v -0.2 0.2 -0.1
v 0.2 0.2 -0.1
v 0.3 0.2 -0.1
v -0.3 0.2 -0.2
v -0.2 0.2 -0.2
v 0.2 0.2 -0.2
v 0.3 0.2 -0.2
v -0.3 0.3 0.3
v -0.2 0.3 0.3
v 0.2 0.3 0.3
v 0.3 0.3 0.3
v -0.3 0.3 0.2
v -0.2 0.3 0.2
v 0.2 0.3 0.2
v 0.3 0.3 0.2
v -0.3 0.3 -0.2
v -0.2 0.3 -0.2
v 0.2 0.3 -0.2
v 0.3 0.3 -0.2
v -0.3 0.3 -0.3
v -0.2 0.3 -0.3
v 0.2 0.3 -0.3
v 0.3 0.3 -0.3

# faces
f 8/1/1 3/1/1 2/1/1
f 8/2/1 4/2/1 3/2/1
f 9/1/1 5/1/1 4/1/1
f 9/2/1 4/2/1 8/2/1
f 10/2/1 6/2/1 5/2/1
f 10/1/1 5/1/1 9/1/1
f 11/2/1 2/2/1 1/2/1
f 11/1/1 8/1/1 2/1/1
f 12/1/1 8/1/1 11/1/1
f 13/2/1 6/2/1 10/2/1
f 14/1/1 7/1/1 6/1/1
f 14/2/1 6/2/1 13/2/1
f 15/2/1 11/2/1 1/2/1
f 16/2/1 11/2/1 15/2/1
f 17/1/1 7/1/1 14/1/1
f 18/1/1 7/1/1 17/1/1
f 20/2/2 21/2/2 26/2/2
f 21/1/2 22/1/2 26/1/2
f 22/2/2 23/2/2 27/2/2
f 26/1/2 22/1/2 27/1/2
f 23/1/2 24/1/2 28/1/2
f 27/2/2 23/2/2 28/2/2
f 19/1/2 20/1/2 29/1/2
f 20/2/2 26/2/2 29/2/2
f 29/2/2 26/2/2 30/2/2
f 28/1/2 24/1/2 31/1/2
f 24/2/2 25/2/2 32/2/2
f 31/1/2 24/1/2 32/1/2
f 19/1/2 29/1/2 33/1/2
f 33/1/2 29/1/2 34/1/2
f 32/2/2 25/2/2 35/2/2
f 35/2/2 25/2/2 36/2/2
f 39/2/3 38/2/3 37/2/3
f 40/2/3 38/2/3 39/2/3
f 41/3/3 40/3/3 39/3/3
f 42/3/3 40/3/3 41/3/3
f 43/1/3 42/1/3 41/1/3
f 44/1/3 42/1/3 43/1/3
f 47/2/3 46/2/3 45/2/3
f 48/2/3 46/2/3 47/2/3
f 49/3/3 48/3/3 47/3/3
f 50/3/3 48/3/3 49/3/3
f 51/1/3 50/1/3 49/1/3
f 52/1/3 50/1/3 51/1/3
f 55/1/3 54/1/3 53/1/3
f 56/1/3 54/1/3 55/1/3
f 57/3/3 56/3/3 55/3/3
f 58/3/3 56/3/3 57/3/3
f 59/2/3 58/2/3 57/2/3
f 60/2/3 58/2/3 59/2/3
f 61/2/4 62/2/4 63/2/4
f 63/2/4 62/2/4 64/2/4
f 63/3/4 64/3/4 65/3/4
f 65/3/4 64/3/4 66/3/4
f 65/1/4 66/1/4 67/1/4
f 67/1/4 66/1/4 68/1/4
f 69/1/4 70/1/4 71/1/4
f 71/1/4 70/1/4 72/1/4
f 71/3/4 72/3/4 73/3/4
f 73/3/4 72/3/4 74/3/4
f 73/2/4 74/2/4 75/2/4
f 75/2/4 74/2/4 76/2/4
f 77/1/4 78/1/4 79/1/4
f 79/1/4 78/1/4 80/1/4
f 79/3/4 80/3/4 81/3/4
f 81/3/4 80/3/4 82/3/4
f 81/2/4 82/2/4 83/2/4
f 83/2/4 82/2/4 84/2/4
f 89/2/5 86/2/5 85/2/5
f 90/3/5 87/3/5 86/3/5
f 90/2/5 86/2/5 89/2/5
f 91/1/5 88/1/5 87/1/5
f 91/3/5 87/3/5 90/3/5
f 92/1/5 88/1/5 91/1/5
f 93/1/5 90/1/5 89/1/5
f 94/3/5 91/3/5 90/3/5
f 94/1/5 90/1/5 93/1/5
f 95/2/5 92/2/5 91/2/5
f 95/3/5 91/3/5 94/3/5
f 96/2/5 92/2/5 95/2/5
f 97/2/5 94/2/5 93/2/5
f 98/3/5 95/3/5 94/3/5
f 98/2/5 94/2/5 97/2/5
f 99/1/5 96/1/5 95/1/5
f 99/3/5 95/3/5 98/3/5
f 100/1/5 96/1/5 99/1/5
f 101/1/5 98/1/5 97/1/5
f 102/3/5 99/3/5 98/3/5
f 102/1/5 98/1/5 101/1/5
f 103/2/5 100/2/5 99/2/5
f 103/3/5 99/3/5 102/3/5
f 104/2/5 100/2/5 103/2/5
f 105/2/5 102/2/5 101/2/5
f 106/3/5 103/3/5 102/3/5
f 106/2/5 102/2/5 105/2/5
f 107/1/5 104/1/5 103/1/5
f 107/3/5 103/3/5 106/3/5
f 108/1/5 104/1/5 107/1/5
f 109/1/5 106/1/5 105/1/5
f 110/3/5 107/3/5 106/3/5
f 110/1/5 106/1/5 109/1/5
f 111/2/5 108/2/5 107/2/5
f 111/3/5 107/3/5 110/3/5
f 112/2/5 108/2/5 111/2/5
f 113/2/6 114/2/6 117/2/6
f 114/3/6 115/3/6 118/3/6
f 117/2/6 114/2/6 118/2/6
f 115/1/6 116/1/6 119/1/6
f 118/3/6 115/3/6 119/3/6
f 119/1/6 116/1/6 120/1/6
f 117/1/6 118/1/6 121/1/6
f 118/3/6 119/3/6 122/3/6
f 121/1/6 118/1/6 122/1/6
f 119/2/6 120/2/6 123/2/6
f 122/3/6 119/3/6 123/3/6
f 123/2/6 120/2/6 124/2/6
f 125/1/6 126/1/6 129/1/6
f 126/3/6 127/3/6 130/3/6
f 129/1/6 126/1/6 130/1/6
f 127/2/6 128/2/6 131/2/6
f 130/3/6 127/3/6 131/3/6
f 131/2/6 128/2/6 132/2/6
f 133/2/6 134/2/6 137/2/6
f 134/3/6 135/3/6 138/3/6
f 137/2/6 134/2/6 138/2/6
f 135/1/6 136/1/6 139/1/6
f 138/3/6 135/3/6 139/3/6
f 139/1/6 136/1/6 140/1/6
f 141/2/6 142/2/6 145/2/6
f 142/3/6 143/3/6 146/3/6
f 145/2/6 142/2/6 146/2/6
f 143/1/6 144/1/6 147/1/6
f 146/3/6 143/3/6 147/3/6
f 147/1/6 144/1/6 148/1/6
f 149/1/6 150/1/6 153/1/6
f 150/3/6 151/3/6 154/3/6
f 153/1/6 150/1/6 154/1/6
f 151/2/6 152/2/6 155/2/6
f 154/3/6 151/3/6 155/3/6
f 155/2/6 152/2/6 156/2/6
