# MagicaVoxel @ Ephtracy

# group
o 

# material
mtllib SideBlockC.mtl
usemtl palette

# normals
vn -1 0 0
vn 1 0 0
vn 0 0 1
vn 0 0 -1
vn 0 -1 0
vn 0 1 0

# texcoords
vt 0.958984 0.5
vt 0.966797 0.5
vt 0.978516 0.5

# verts
v -0.3 0 0.3
v -0.3 0 -0.3
v -0.3 0.1 -0.1
v -0.3 0.1 -0.3
v -0.3 0.2 0.1
v -0.3 0.2 -0.1
v -0.3 0.3 0.3
v -0.3 0.3 0.1
v 0.3 0 0.3
v 0.3 0 0.2
v 0.3 0 0.1
v 0.3 0 0
v 0.3 0 -0.1
v 0.3 0 -0.2
v 0.3 0 -0.3
v 0.3 0.1 -0.1
v 0.3 0.1 -0.2
v 0.3 0.1 -0.3
v 0.3 0.2 0.1
v 0.3 0.2 0
v 0.3 0.2 -0.1
v 0.3 0.3 0.3
v 0.3 0.3 0.2
v 0.3 0.3 0.1
v -0.3 0 0.3
v -0.3 0.3 0.3
v 0.2 0 0.3
v 0.2 0.3 0.3
v 0.3 0 0.3
v 0.3 0.3 0.3
v -0.3 0.2 0.1
v -0.3 0.3 0.1
v 0.2 0.2 0.1
v 0.2 0.3 0.1
v 0.3 0.2 0.1
v 0.3 0.3 0.1
v -0.3 0.1 -0.1
v -0.3 0.2 -0.1
v 0.2 0.1 -0.1
v 0.2 0.2 -0.1
v 0.3 0.1 -0.1
v 0.3 0.2 -0.1
v -0.3 0 -0.3
v -0.3 0.1 -0.3
v 0.2 0 -0.3
v 0.2 0.1 -0.3
v 0.3 0 -0.3
v 0.3 0.1 -0.3
v -0.3 0 0.3
v 0.2 0 0.3
v 0.3 0 0.3
v 0.2 0 0.2
v 0.3 0 0.2
v 0.2 0 0.1
v 0.3 0 0.1
v 0.2 0 0
v 0.3 0 0
v 0.2 0 -0.1
v 0.3 0 -0.1
v 0.2 0 -0.2
v 0.3 0 -0.2
v -0.3 0 -0.3
v 0.2 0 -0.3
v 0.3 0 -0.3
v -0.3 0.1 -0.1
v 0.2 0.1 -0.1
v 0.3 0.1 -0.1
v 0.2 0.1 -0.2
v 0.3 0.1 -0.2
v -0.3 0.1 -0.3
v 0.2 0.1 -0.3
v 0.3 0.1 -0.3
v -0.3 0.2 0.1
v 0.2 0.2 0.1
v 0.3 0.2 0.1
v 0.2 0.2 0
v 0.3 0.2 0
v -0.3 0.2 -0.1
v 0.2 0.2 -0.1
v 0.3 0.2 -0.1
v -0.3 0.3 0.3
v 0.2 0.3 0.3
v 0.3 0.3 0.3
v 0.2 0.3 0.2
v 0.3 0.3 0.2
v -0.3 0.3 0.1
v 0.2 0.3 0.1
v 0.3 0.3 0.1

# faces
f 3/3/1 2/3/1 1/3/1
f 4/3/1 2/3/1 3/3/1
f 5/3/1 3/3/1 1/3/1
f 6/3/1 3/3/1 5/3/1
f 7/3/1 5/3/1 1/3/1
f 8/3/1 5/3/1 7/3/1
f 12/1/2 13/1/2 16/1/2
f 13/2/2 14/2/2 16/2/2
f 14/1/2 15/1/2 17/1/2
f 16/2/2 14/2/2 17/2/2
f 17/1/2 15/1/2 18/1/2
f 10/1/2 11/1/2 19/1/2
f 11/2/2 12/2/2 19/2/2
f 12/1/2 16/1/2 20/1/2
f 19/2/2 12/2/2 20/2/2
f 20/1/2 16/1/2 21/1/2
f 9/2/2 10/2/2 22/2/2
f 10/1/2 19/1/2 23/1/2
f 22/2/2 10/2/2 23/2/2
f 23/1/2 19/1/2 24/1/2
f 27/3/3 26/3/3 25/3/3
f 28/3/3 26/3/3 27/3/3
f 29/2/3 28/2/3 27/2/3
f 30/2/3 28/2/3 29/2/3
f 31/3/4 32/3/4 33/3/4
f 33/3/4 32/3/4 34/3/4
f 33/1/4 34/1/4 35/1/4
f 35/1/4 34/1/4 36/1/4
f 37/3/4 38/3/4 39/3/4
f 39/3/4 38/3/4 40/3/4
f 39/1/4 40/1/4 41/1/4
f 41/1/4 40/1/4 42/1/4
f 43/3/4 44/3/4 45/3/4
f 45/3/4 44/3/4 46/3/4
f 45/1/4 46/1/4 47/1/4
f 47/1/4 46/1/4 48/1/4
f 52/3/5 50/3/5 49/3/5
f 52/2/5 51/2/5 50/2/5
f 53/2/5 51/2/5 52/2/5
f 54/3/5 52/3/5 49/3/5
f 54/1/5 53/1/5 52/1/5
f 55/1/5 53/1/5 54/1/5
f 56/3/5 54/3/5 49/3/5
f 56/2/5 55/2/5 54/2/5
f 57/2/5 55/2/5 56/2/5
f 58/3/5 56/3/5 49/3/5
f 58/1/5 57/1/5 56/1/5
f 59/1/5 57/1/5 58/1/5
f 60/3/5 58/3/5 49/3/5
f 60/2/5 59/2/5 58/2/5
f 61/2/5 59/2/5 60/2/5
f 62/3/5 60/3/5 49/3/5
f 63/1/5 61/1/5 60/1/5
f 63/3/5 60/3/5 62/3/5
f 64/1/5 61/1/5 63/1/5
f 65/3/6 66/3/6 68/3/6
f 66/2/6 67/2/6 68/2/6
f 68/2/6 67/2/6 69/2/6
f 65/3/6 68/3/6 70/3/6
f 68/1/6 69/1/6 71/1/6
f 70/3/6 68/3/6 71/3/6
f 71/1/6 69/1/6 72/1/6
f 73/3/6 74/3/6 76/3/6
f 74/2/6 75/2/6 76/2/6
f 76/2/6 75/2/6 77/2/6
f 73/3/6 76/3/6 78/3/6
f 76/1/6 77/1/6 79/1/6
f 78/3/6 76/3/6 79/3/6
f 79/1/6 77/1/6 80/1/6
f 81/3/6 82/3/6 84/3/6
f 82/2/6 83/2/6 84/2/6
f 84/2/6 83/2/6 85/2/6
f 81/3/6 84/3/6 86/3/6
f 84/1/6 85/1/6 87/1/6
f 86/3/6 84/3/6 87/3/6
f 87/1/6 85/1/6 88/1/6
