# MagicaVoxel @ Ephtracy

# group
o 

# material
mtllib SideBlockB.mtl
usemtl palette

# normals
vn -1 0 0
vn 1 0 0
vn 0 0 1
vn 0 0 -1
vn 0 -1 0
vn 0 1 0

# texcoords
vt 0.958984 0.5
vt 0.966797 0.5
vt 0.978516 0.5

# verts
v -0.3 0 0.3
v -0.3 0 0.2
v -0.3 0 0.1
v -0.3 0 0
v -0.3 0 -0.1
v -0.3 0 -0.2
v -0.3 0 -0.3
v -0.3 0.1 -0.1
v -0.3 0.1 -0.2
v -0.3 0.1 -0.3
v -0.3 0.2 0.1
v -0.3 0.2 0
v -0.3 0.2 -0.1
v -0.3 0.3 0.3
v -0.3 0.3 0.2
v -0.3 0.3 0.1
v 0.3 0 0.3
v 0.3 0 -0.3
v 0.3 0.1 -0.1
v 0.3 0.1 -0.3
v 0.3 0.2 0.1
v 0.3 0.2 -0.1
v 0.3 0.3 0.3
v 0.3 0.3 0.1
v -0.3 0 0.3
v -0.3 0.3 0.3
v -0.2 0 0.3
v -0.2 0.3 0.3
v 0.3 0 0.3
v 0.3 0.3 0.3
v -0.3 0.2 0.1
v -0.3 0.3 0.1
v -0.2 0.2 0.1
v -0.2 0.3 0.1
v 0.3 0.2 0.1
v 0.3 0.3 0.1
v -0.3 0.1 -0.1
v -0.3 0.2 -0.1
v -0.2 0.1 -0.1
v -0.2 0.2 -0.1
v 0.3 0.1 -0.1
v 0.3 0.2 -0.1
v -0.3 0 -0.3
v -0.3 0.1 -0.3
v -0.2 0 -0.3
v -0.2 0.1 -0.3
v 0.3 0 -0.3
v 0.3 0.1 -0.3
v -0.3 0 0.3
v -0.2 0 0.3
v 0.3 0 0.3
v -0.3 0 0.2
v -0.2 0 0.2
v -0.3 0 0.1
v -0.2 0 0.1
v -0.3 0 0
v -0.2 0 0
v -0.3 0 -0.1
v -0.2 0 -0.1
v -0.3 0 -0.2
v -0.2 0 -0.2
v -0.3 0 -0.3
v -0.2 0 -0.3
v 0.3 0 -0.3
v -0.3 0.1 -0.1
v -0.2 0.1 -0.1
v 0.3 0.1 -0.1
v -0.3 0.1 -0.2
v -0.2 0.1 -0.2
v -0.3 0.1 -0.3
v -0.2 0.1 -0.3
v 0.3 0.1 -0.3
v -0.3 0.2 0.1
v -0.2 0.2 0.1
v 0.3 0.2 0.1
v -0.3 0.2 0
v -0.2 0.2 0
v -0.3 0.2 -0.1
v -0.2 0.2 -0.1
v 0.3 0.2 -0.1
v -0.3 0.3 0.3
v -0.2 0.3 0.3
v 0.3 0.3 0.3
v -0.3 0.3 0.2
v -0.2 0.3 0.2
v -0.3 0.3 0.1
v -0.2 0.3 0.1
v 0.3 0.3 0.1

# faces
f 8/2/1 5/2/1 4/2/1
f 8/1/1 6/1/1 5/1/1
f 9/2/1 7/2/1 6/2/1
f 9/1/1 6/1/1 8/1/1
f 10/2/1 7/2/1 9/2/1
f 11/2/1 3/2/1 2/2/1
f 11/1/1 4/1/1 3/1/1
f 12/2/1 8/2/1 4/2/1
f 12/1/1 4/1/1 11/1/1
f 13/2/1 8/2/1 12/2/1
f 14/1/1 2/1/1 1/1/1
f 15/2/1 11/2/1 2/2/1
f 15/1/1 2/1/1 14/1/1
f 16/2/1 11/2/1 15/2/1
f 17/3/2 18/3/2 19/3/2
f 19/3/2 18/3/2 20/3/2
f 17/3/2 19/3/2 21/3/2
f 21/3/2 19/3/2 22/3/2
f 17/3/2 21/3/2 23/3/2
f 23/3/2 21/3/2 24/3/2
f 27/1/3 26/1/3 25/1/3
f 28/1/3 26/1/3 27/1/3
f 29/3/3 28/3/3 27/3/3
f 30/3/3 28/3/3 29/3/3
f 31/2/4 32/2/4 33/2/4
f 33/2/4 32/2/4 34/2/4
f 33/3/4 34/3/4 35/3/4
f 35/3/4 34/3/4 36/3/4
f 37/2/4 38/2/4 39/2/4
f 39/2/4 38/2/4 40/2/4
f 39/3/4 40/3/4 41/3/4
f 41/3/4 40/3/4 42/3/4
f 43/2/4 44/2/4 45/2/4
f 45/2/4 44/2/4 46/2/4
f 45/3/4 46/3/4 47/3/4
f 47/3/4 46/3/4 48/3/4
f 52/1/5 50/1/5 49/1/5
f 53/3/5 51/3/5 50/3/5
f 53/1/5 50/1/5 52/1/5
f 54/2/5 53/2/5 52/2/5
f 55/3/5 51/3/5 53/3/5
f 55/2/5 53/2/5 54/2/5
f 56/1/5 55/1/5 54/1/5
f 57/3/5 51/3/5 55/3/5
f 57/1/5 55/1/5 56/1/5
f 58/2/5 57/2/5 56/2/5
f 59/3/5 51/3/5 57/3/5
f 59/2/5 57/2/5 58/2/5
f 60/1/5 59/1/5 58/1/5
f 61/3/5 51/3/5 59/3/5
f 61/1/5 59/1/5 60/1/5
f 62/2/5 61/2/5 60/2/5
f 63/3/5 51/3/5 61/3/5
f 63/2/5 61/2/5 62/2/5
f 64/3/5 51/3/5 63/3/5
f 65/1/6 66/1/6 68/1/6
f 66/3/6 67/3/6 69/3/6
f 68/1/6 66/1/6 69/1/6
f 68/2/6 69/2/6 70/2/6
f 69/3/6 67/3/6 71/3/6
f 70/2/6 69/2/6 71/2/6
f 71/3/6 67/3/6 72/3/6
f 73/1/6 74/1/6 76/1/6
f 74/3/6 75/3/6 77/3/6
f 76/1/6 74/1/6 77/1/6
f 76/2/6 77/2/6 78/2/6
f 77/3/6 75/3/6 79/3/6
f 78/2/6 77/2/6 79/2/6
f 79/3/6 75/3/6 80/3/6
f 81/1/6 82/1/6 84/1/6
f 82/3/6 83/3/6 85/3/6
f 84/1/6 82/1/6 85/1/6
f 84/2/6 85/2/6 86/2/6
f 85/3/6 83/3/6 87/3/6
f 86/2/6 85/2/6 87/2/6
f 87/3/6 83/3/6 88/3/6
