# MagicaVoxel @ Ephtracy

# group
o 

# material
mtllib SideBlockA.mtl
usemtl palette

# normals
vn -1 0 0
vn 1 0 0
vn 0 0 1
vn 0 0 -1
vn 0 -1 0
vn 0 1 0

# texcoords
vt 0.958984 0.5
vt 0.966797 0.5
vt 0.978516 0.5

# verts
v -0.3 0 0.3
v -0.3 0 0.2
v -0.3 0 0.1
v -0.3 0 0
v -0.3 0 -0.1
v -0.3 0 -0.2
v -0.3 0 -0.3
v -0.3 0.1 -0.1
v -0.3 0.1 -0.2
v -0.3 0.1 -0.3
v -0.3 0.2 0.1
v -0.3 0.2 0
v -0.3 0.2 -0.1
v -0.3 0.3 0.3
v -0.3 0.3 0.2
v -0.3 0.3 0.1
v 0.3 0 0.3
v 0.3 0 0.2
v 0.3 0 0.1
v 0.3 0 0
v 0.3 0 -0.1
v 0.3 0 -0.2
v 0.3 0 -0.3
v 0.3 0.1 -0.1
v 0.3 0.1 -0.2
v 0.3 0.1 -0.3
v 0.3 0.2 0.1
v 0.3 0.2 0
v 0.3 0.2 -0.1
v 0.3 0.3 0.3
v 0.3 0.3 0.2
v 0.3 0.3 0.1
v -0.3 0 0.3
v -0.3 0.3 0.3
v -0.2 0 0.3
v -0.2 0.3 0.3
v 0.2 0 0.3
v 0.2 0.3 0.3
v 0.3 0 0.3
v 0.3 0.3 0.3
v -0.3 0.2 0.1
v -0.3 0.3 0.1
v -0.2 0.2 0.1
v -0.2 0.3 0.1
v 0.2 0.2 0.1
v 0.2 0.3 0.1
v 0.3 0.2 0.1
v 0.3 0.3 0.1
v -0.3 0.1 -0.1
v -0.3 0.2 -0.1
v -0.2 0.1 -0.1
v -0.2 0.2 -0.1
v 0.2 0.1 -0.1
v 0.2 0.2 -0.1
v 0.3 0.1 -0.1
v 0.3 0.2 -0.1
v -0.3 0 -0.3
v -0.3 0.1 -0.3
v -0.2 0 -0.3
v -0.2 0.1 -0.3
v 0.2 0 -0.3
v 0.2 0.1 -0.3
v 0.3 0 -0.3
v 0.3 0.1 -0.3
v -0.3 0 0.3
v -0.2 0 0.3
v 0.2 0 0.3
v 0.3 0 0.3
v -0.3 0 0.2
v -0.2 0 0.2
v 0.2 0 0.2
v 0.3 0 0.2
v -0.3 0 0.1
v -0.2 0 0.1
v 0.2 0 0.1
v 0.3 0 0.1
v -0.3 0 0
v -0.2 0 0
v 0.2 0 0
v 0.3 0 0
v -0.3 0 -0.1
v -0.2 0 -0.1
v 0.2 0 -0.1
v 0.3 0 -0.1
v -0.3 0 -0.2
v -0.2 0 -0.2
v 0.2 0 -0.2
v 0.3 0 -0.2
v -0.3 0 -0.3
v -0.2 0 -0.3
v 0.2 0 -0.3
v 0.3 0 -0.3
v -0.3 0.1 -0.1
v -0.2 0.1 -0.1
v 0.2 0.1 -0.1
v 0.3 0.1 -0.1
v -0.3 0.1 -0.2
v -0.2 0.1 -0.2
v 0.2 0.1 -0.2
v 0.3 0.1 -0.2
v -0.3 0.1 -0.3
v -0.2 0.1 -0.3
v 0.2 0.1 -0.3
v 0.3 0.1 -0.3
v -0.3 0.2 0.1
v -0.2 0.2 0.1
v 0.2 0.2 0.1
v 0.3 0.2 0.1
v -0.3 0.2 0
v -0.2 0.2 0
v 0.2 0.2 0
v 0.3 0.2 0
v -0.3 0.2 -0.1
v -0.2 0.2 -0.1
v 0.2 0.2 -0.1
v 0.3 0.2 -0.1
v -0.3 0.3 0.3
v -0.2 0.3 0.3
v 0.2 0.3 0.3
v 0.3 0.3 0.3
v -0.3 0.3 0.2
v -0.2 0.3 0.2
v 0.2 0.3 0.2
v 0.3 0.3 0.2
v -0.3 0.3 0.1
v -0.2 0.3 0.1
v 0.2 0.3 0.1
v 0.3 0.3 0.1

# faces
f 8/2/1 5/2/1 4/2/1
f 8/1/1 6/1/1 5/1/1
f 9/2/1 7/2/1 6/2/1
f 9/1/1 6/1/1 8/1/1
f 10/2/1 7/2/1 9/2/1
f 11/2/1 3/2/1 2/2/1
f 11/1/1 4/1/1 3/1/1
f 12/2/1 8/2/1 4/2/1
f 12/1/1 4/1/1 11/1/1
f 13/2/1 8/2/1 12/2/1
f 14/1/1 2/1/1 1/1/1
f 15/2/1 11/2/1 2/2/1
f 15/1/1 2/1/1 14/1/1
f 16/2/1 11/2/1 15/2/1
f 20/1/2 21/1/2 24/1/2
f 21/2/2 22/2/2 24/2/2
f 22/1/2 23/1/2 25/1/2
f 24/2/2 22/2/2 25/2/2
f 25/1/2 23/1/2 26/1/2
f 18/1/2 19/1/2 27/1/2
f 19/2/2 20/2/2 27/2/2
f 20/1/2 24/1/2 28/1/2
f 27/2/2 20/2/2 28/2/2
f 28/1/2 24/1/2 29/1/2
f 17/2/2 18/2/2 30/2/2
f 18/1/2 27/1/2 31/1/2
f 30/2/2 18/2/2 31/2/2
f 31/1/2 27/1/2 32/1/2
f 35/1/3 34/1/3 33/1/3
f 36/1/3 34/1/3 35/1/3
f 37/3/3 36/3/3 35/3/3
f 38/3/3 36/3/3 37/3/3
f 39/2/3 38/2/3 37/2/3
f 40/2/3 38/2/3 39/2/3
f 41/2/4 42/2/4 43/2/4
f 43/2/4 42/2/4 44/2/4
f 43/3/4 44/3/4 45/3/4
f 45/3/4 44/3/4 46/3/4
f 45/1/4 46/1/4 47/1/4
f 47/1/4 46/1/4 48/1/4
f 49/2/4 50/2/4 51/2/4
f 51/2/4 50/2/4 52/2/4
f 51/3/4 52/3/4 53/3/4
f 53/3/4 52/3/4 54/3/4
f 53/1/4 54/1/4 55/1/4
f 55/1/4 54/1/4 56/1/4
f 57/2/4 58/2/4 59/2/4
f 59/2/4 58/2/4 60/2/4
f 59/3/4 60/3/4 61/3/4
f 61/3/4 60/3/4 62/3/4
f 61/1/4 62/1/4 63/1/4
f 63/1/4 62/1/4 64/1/4
f 69/1/5 66/1/5 65/1/5
f 70/3/5 67/3/5 66/3/5
f 70/1/5 66/1/5 69/1/5
f 71/2/5 68/2/5 67/2/5
f 71/3/5 67/3/5 70/3/5
f 72/2/5 68/2/5 71/2/5
f 73/2/5 70/2/5 69/2/5
f 74/3/5 71/3/5 70/3/5
f 74/2/5 70/2/5 73/2/5
f 75/1/5 72/1/5 71/1/5
f 75/3/5 71/3/5 74/3/5
f 76/1/5 72/1/5 75/1/5
f 77/1/5 74/1/5 73/1/5
f 78/3/5 75/3/5 74/3/5
f 78/1/5 74/1/5 77/1/5
f 79/2/5 76/2/5 75/2/5
f 79/3/5 75/3/5 78/3/5
f 80/2/5 76/2/5 79/2/5
f 81/2/5 78/2/5 77/2/5
f 82/3/5 79/3/5 78/3/5
f 82/2/5 78/2/5 81/2/5
f 83/1/5 80/1/5 79/1/5
f 83/3/5 79/3/5 82/3/5
f 84/1/5 80/1/5 83/1/5
f 85/1/5 82/1/5 81/1/5
f 86/3/5 83/3/5 82/3/5
f 86/1/5 82/1/5 85/1/5
f 87/2/5 84/2/5 83/2/5
f 87/3/5 83/3/5 86/3/5
f 88/2/5 84/2/5 87/2/5
f 89/2/5 86/2/5 85/2/5
f 90/3/5 87/3/5 86/3/5
f 90/2/5 86/2/5 89/2/5
f 91/1/5 88/1/5 87/1/5
f 91/3/5 87/3/5 90/3/5
f 92/1/5 88/1/5 91/1/5
f 93/1/6 94/1/6 97/1/6
f 94/3/6 95/3/6 98/3/6
f 97/1/6 94/1/6 98/1/6
f 95/2/6 96/2/6 99/2/6
f 98/3/6 95/3/6 99/3/6
f 99/2/6 96/2/6 100/2/6
f 97/2/6 98/2/6 101/2/6
f 98/3/6 99/3/6 102/3/6
f 101/2/6 98/2/6 102/2/6
f 99/1/6 100/1/6 103/1/6
f 102/3/6 99/3/6 103/3/6
f 103/1/6 100/1/6 104/1/6
f 105/1/6 106/1/6 109/1/6
f 106/3/6 107/3/6 110/3/6
f 109/1/6 106/1/6 110/1/6
f 107/2/6 108/2/6 111/2/6
f 110/3/6 107/3/6 111/3/6
f 111/2/6 108/2/6 112/2/6
f 109/2/6 110/2/6 113/2/6
f 110/3/6 111/3/6 114/3/6
f 113/2/6 110/2/6 114/2/6
f 111/1/6 112/1/6 115/1/6
f 114/3/6 111/3/6 115/3/6
f 115/1/6 112/1/6 116/1/6
f 117/1/6 118/1/6 121/1/6
f 118/3/6 119/3/6 122/3/6
f 121/1/6 118/1/6 122/1/6
f 119/2/6 120/2/6 123/2/6
f 122/3/6 119/3/6 123/3/6
f 123/2/6 120/2/6 124/2/6
f 121/2/6 122/2/6 125/2/6
f 122/3/6 123/3/6 126/3/6
f 125/2/6 122/2/6 126/2/6
f 123/1/6 124/1/6 127/1/6
f 126/3/6 123/3/6 127/3/6
f 127/1/6 124/1/6 128/1/6
