# MagicaVoxel @ Ephtracy

# group
o 

# material
mtllib RoadBlock.mtl
usemtl palette

# normals
vn -1 0 0
vn 1 0 0
vn 0 0 1
vn 0 0 -1
vn 0 -1 0
vn 0 1 0

# texcoords
vt 0.958984 0.5
vt 0.966797 0.5
vt 0.978516 0.5

# verts
v -0.3 0 0.3
v -0.3 0 0.2
v -0.3 0 -0.2
v -0.3 0 -0.3
v -0.3 0.3 0.3
v -0.3 0.3 0.2
v -0.3 0.3 -0.2
v -0.3 0.3 -0.3
v 0.3 0 0.3
v 0.3 0 0.2
v 0.3 0 -0.2
v 0.3 0 -0.3
v 0.3 0.3 0.3
v 0.3 0.3 0.2
v 0.3 0.3 -0.2
v 0.3 0.3 -0.3
v -0.3 0 0.3
v -0.3 0.3 0.3
v -0.2 0 0.3
v -0.2 0.3 0.3
v -0.1 0 0.3
v -0.1 0.3 0.3
v 0 0 0.3
v 0 0.3 0.3
v 0.1 0 0.3
v 0.1 0.3 0.3
v 0.2 0 0.3
v 0.2 0.3 0.3
v 0.3 0 0.3
v 0.3 0.3 0.3
v -0.3 0 -0.3
v -0.3 0.3 -0.3
v -0.2 0 -0.3
v -0.2 0.3 -0.3
v -0.1 0 -0.3
v -0.1 0.3 -0.3
v 0 0 -0.3
v 0 0.3 -0.3
v 0.1 0 -0.3
v 0.1 0.3 -0.3
v 0.2 0 -0.3
v 0.2 0.3 -0.3
v 0.3 0 -0.3
v 0.3 0.3 -0.3
v -0.3 0 0.3
v -0.2 0 0.3
v -0.1 0 0.3
v 0 0 0.3
v 0.1 0 0.3
v 0.2 0 0.3
v 0.3 0 0.3
v -0.3 0 0.2
v -0.2 0 0.2
v -0.1 0 0.2
v 0 0 0.2
v 0.1 0 0.2
v 0.2 0 0.2
v 0.3 0 0.2
v -0.3 0 -0.2
v -0.2 0 -0.2
v -0.1 0 -0.2
v 0 0 -0.2
v 0.1 0 -0.2
v 0.2 0 -0.2
v 0.3 0 -0.2
v -0.3 0 -0.3
v -0.2 0 -0.3
v -0.1 0 -0.3
v 0 0 -0.3
v 0.1 0 -0.3
v 0.2 0 -0.3
v 0.3 0 -0.3
v -0.3 0.3 0.3
v -0.2 0.3 0.3
v -0.1 0.3 0.3
v 0 0.3 0.3
v 0.1 0.3 0.3
v 0.2 0.3 0.3
v 0.3 0.3 0.3
v -0.3 0.3 0.2
v -0.2 0.3 0.2
v -0.1 0.3 0.2
v 0 0.3 0.2
v 0.1 0.3 0.2
v 0.2 0.3 0.2
v 0.3 0.3 0.2
v -0.3 0.3 -0.2
v -0.2 0.3 -0.2
v -0.1 0.3 -0.2
v 0 0.3 -0.2
v 0.1 0.3 -0.2
v 0.2 0.3 -0.2
v 0.3 0.3 -0.2
v -0.3 0.3 -0.3
v -0.2 0.3 -0.3
v -0.1 0.3 -0.3
v 0 0.3 -0.3
v 0.1 0.3 -0.3
v 0.2 0.3 -0.3
v 0.3 0.3 -0.3

# faces
f 5/1/1 2/1/1 1/1/1
f 6/3/1 3/3/1 2/3/1
f 6/1/1 2/1/1 5/1/1
f 7/2/1 4/2/1 3/2/1
f 7/3/1 3/3/1 6/3/1
f 8/2/1 4/2/1 7/2/1
f 9/2/2 10/2/2 13/2/2
f 10/3/2 11/3/2 14/3/2
f 13/2/2 10/2/2 14/2/2
f 11/1/2 12/1/2 15/1/2
f 14/3/2 11/3/2 15/3/2
f 15/1/2 12/1/2 16/1/2
f 19/1/3 18/1/3 17/1/3
f 20/1/3 18/1/3 19/1/3
f 21/2/3 20/2/3 19/2/3
f 22/2/3 20/2/3 21/2/3
f 23/1/3 22/1/3 21/1/3
f 24/1/3 22/1/3 23/1/3
f 25/2/3 24/2/3 23/2/3
f 26/2/3 24/2/3 25/2/3
f 27/1/3 26/1/3 25/1/3
f 28/1/3 26/1/3 27/1/3
f 29/2/3 28/2/3 27/2/3
f 30/2/3 28/2/3 29/2/3
f 31/2/4 32/2/4 33/2/4
f 33/2/4 32/2/4 34/2/4
f 33/1/4 34/1/4 35/1/4
f 35/1/4 34/1/4 36/1/4
f 35/2/4 36/2/4 37/2/4
f 37/2/4 36/2/4 38/2/4
f 37/1/4 38/1/4 39/1/4
f 39/1/4 38/1/4 40/1/4
f 39/2/4 40/2/4 41/2/4
f 41/2/4 40/2/4 42/2/4
f 41/1/4 42/1/4 43/1/4
f 43/1/4 42/1/4 44/1/4
f 52/1/5 46/1/5 45/1/5
f 53/2/5 47/2/5 46/2/5
f 53/1/5 46/1/5 52/1/5
f 54/1/5 48/1/5 47/1/5
f 54/2/5 47/2/5 53/2/5
f 55/2/5 49/2/5 48/2/5
f 55/1/5 48/1/5 54/1/5
f 56/1/5 50/1/5 49/1/5
f 56/2/5 49/2/5 55/2/5
f 57/2/5 51/2/5 50/2/5
f 57/1/5 50/1/5 56/1/5
f 58/2/5 51/2/5 57/2/5
f 59/3/5 56/3/5 55/3/5
f 59/3/5 53/3/5 52/3/5
f 59/3/5 58/3/5 57/3/5
f 59/3/5 57/3/5 56/3/5
f 59/3/5 55/3/5 54/3/5
f 59/3/5 54/3/5 53/3/5
f 60/3/5 58/3/5 59/3/5
f 61/3/5 58/3/5 60/3/5
f 62/3/5 58/3/5 61/3/5
f 63/3/5 58/3/5 62/3/5
f 64/3/5 58/3/5 63/3/5
f 65/3/5 58/3/5 64/3/5
f 66/2/5 60/2/5 59/2/5
f 67/1/5 61/1/5 60/1/5
f 67/2/5 60/2/5 66/2/5
f 68/2/5 62/2/5 61/2/5
f 68/1/5 61/1/5 67/1/5
f 69/1/5 63/1/5 62/1/5
f 69/2/5 62/2/5 68/2/5
f 70/2/5 64/2/5 63/2/5
f 70/1/5 63/1/5 69/1/5
f 71/1/5 65/1/5 64/1/5
f 71/2/5 64/2/5 70/2/5
f 72/1/5 65/1/5 71/1/5
f 73/1/6 74/1/6 80/1/6
f 74/2/6 75/2/6 81/2/6
f 80/1/6 74/1/6 81/1/6
f 75/1/6 76/1/6 82/1/6
f 81/2/6 75/2/6 82/2/6
f 76/2/6 77/2/6 83/2/6
f 82/1/6 76/1/6 83/1/6
f 77/1/6 78/1/6 84/1/6
f 83/2/6 77/2/6 84/2/6
f 78/2/6 79/2/6 85/2/6
f 84/1/6 78/1/6 85/1/6
f 85/2/6 79/2/6 86/2/6
f 83/3/6 84/3/6 87/3/6
f 80/3/6 81/3/6 87/3/6
f 85/3/6 86/3/6 87/3/6
f 84/3/6 85/3/6 87/3/6
f 82/3/6 83/3/6 87/3/6
f 81/3/6 82/3/6 87/3/6
f 87/3/6 86/3/6 88/3/6
f 88/3/6 86/3/6 89/3/6
f 89/3/6 86/3/6 90/3/6
f 90/3/6 86/3/6 91/3/6
f 91/3/6 86/3/6 92/3/6
f 92/3/6 86/3/6 93/3/6
f 87/2/6 88/2/6 94/2/6
f 88/1/6 89/1/6 95/1/6
f 94/2/6 88/2/6 95/2/6
f 89/2/6 90/2/6 96/2/6
f 95/1/6 89/1/6 96/1/6
f 90/1/6 91/1/6 97/1/6
f 96/2/6 90/2/6 97/2/6
f 91/2/6 92/2/6 98/2/6
f 97/1/6 91/1/6 98/1/6
f 92/1/6 93/1/6 99/1/6
f 98/2/6 92/2/6 99/2/6
f 99/1/6 93/1/6 100/1/6
